<svg width="47" height="22" viewBox="0 0 47 22" fill="none" xmlns="http://www.w3.org/2000/svg">
<path opacity="0.2" d="M35.3227 0.515052C33.6004 -0.662075 32.89 0.411795 31.9607 1.41132C30.8909 2.56367 31.0644 3.59623 32.2167 4.5875C33.3939 5.59942 34.5297 6.6609 35.7894 7.79259C34.7982 8.15605 34.0919 7.8752 33.3691 7.74716C24.3816 6.15287 15.4768 6.57416 6.59254 8.64756C2.96203 9.49426 1.33471 11.77 0.711034 15.1734C0.488 16.4001 0.657341 16.9618 1.99968 16.2968C3.30071 15.6484 4.6761 15.2106 6.11756 15.033C11.3093 14.401 16.5258 14.0458 21.7506 14.2854C24.1875 14.3969 26.6739 14.3267 29.1108 14.8967C28.9125 15.8136 28.2476 16.1192 27.7808 16.5983C26.6822 17.7259 25.4101 18.7172 24.6749 20.1504C24.4147 20.6584 23.7703 21.2697 24.3692 21.8025C24.964 22.3311 25.5257 21.6703 25.9842 21.3151C30.0855 18.1307 34.761 16.3712 39.9114 16.4083C42.9183 16.429 44.5621 14.9338 46.0614 12.7365C46.9081 11.4933 46.7925 10.5681 45.7847 9.46122C42.6581 6.04549 39.1515 3.11712 35.3227 0.506792V0.515052Z" fill="#1A365F"/>
</svg>
