<svg width="16" height="14" viewBox="0 0 16 14" fill="none" xmlns="http://www.w3.org/2000/svg">
<path d="M15.1087 8.15094C15.2564 7.99659 15.3722 7.81458 15.4495 7.61535C15.6118 7.22022 15.6118 6.77701 15.4495 6.38188C15.3722 6.18265 15.2564 6.00064 15.1087 5.84629L10.2397 0.977309C9.93406 0.671693 9.51956 0.5 9.08735 0.5C8.65515 0.5 8.24064 0.671693 7.93503 0.977309C7.62941 1.28292 7.45772 1.69743 7.45772 2.12963C7.45772 2.56184 7.62941 2.97634 7.93503 3.28196L10.0449 5.37562H2.0517C1.62126 5.37562 1.20845 5.54662 0.904075 5.85099C0.599705 6.15536 0.428711 6.56817 0.428711 6.99862C0.428711 7.42906 0.599705 7.84188 0.904075 8.14625C1.20845 8.45062 1.62126 8.62161 2.0517 8.62161H10.0449L7.93503 10.7153C7.78291 10.8661 7.66217 11.0457 7.57977 11.2434C7.49737 11.4412 7.45495 11.6533 7.45495 11.8676C7.45495 12.0819 7.49737 12.294 7.57977 12.4918C7.66217 12.6895 7.78291 12.869 7.93503 13.0199C8.08591 13.172 8.26541 13.2928 8.46319 13.3752C8.66096 13.4576 8.8731 13.5 9.08735 13.5C9.30161 13.5 9.51374 13.4576 9.71152 13.3752C9.9093 13.2928 10.0888 13.172 10.2397 13.0199L15.1087 8.15094Z" fill="white"/>
</svg>
