<svg width="149" height="74" viewBox="0 0 149 74" fill="none" xmlns="http://www.w3.org/2000/svg">
<path d="M4.27002 0.0272057C11.8213 0.147093 19.3845 0.195048 26.9358 0.00323034C30.341 -0.0806899 31.2132 1.46585 31.6673 4.55892C34.6185 25.0835 50.7963 40.6328 71.0007 42.6229C72.1717 42.7428 73.3426 42.8027 74.5135 42.8147C75.6844 42.8027 76.8553 42.7428 78.0263 42.6229C98.2307 40.6328 114.397 25.0835 117.36 4.55893C117.79 1.46585 118.662 -0.0806822 122.067 0.00323866C129.619 0.183069 137.182 0.147104 144.733 0.0272179C148.126 -0.032725 149.226 1.23807 148.963 4.66683C146.083 40.9924 114.875 71.7433 79.7946 73.8773C78.0621 73.9852 76.3535 74.0092 74.6569 73.9972C74.6569 73.9972 74.5493 73.9972 74.5015 73.9972C74.4538 73.9972 74.394 73.9972 74.3462 73.9972C72.6496 73.9972 70.941 73.9732 69.2085 73.8773C34.1286 71.7313 2.90792 40.9924 0.0403591 4.66681C-0.234451 1.22607 0.864777 -0.0327379 4.25807 0.015217L4.27002 0.0272057ZM3.33806 8.03563C7.74693 41.7717 34.714 67.4874 68.7664 70.6644C70.6901 70.8442 72.6137 70.9281 74.5135 70.9521C76.4133 70.9281 78.325 70.8442 80.2606 70.6644C114.301 67.4754 141.268 41.7717 145.677 8.03564C146.119 4.61887 145.629 2.76063 141.531 3.03637C136.776 3.34807 131.949 3.49194 127.229 3.0004C122.247 2.48489 120.514 4.31915 119.451 9.16257C114.755 30.3465 96.7611 44.8168 74.6688 45.7879C74.6688 45.7879 74.5732 45.7879 74.5135 45.7879C74.4657 45.7879 74.4179 45.7879 74.3582 45.7879C52.2659 44.8048 34.26 30.3345 29.5763 9.15057C28.501 4.31915 26.7804 2.47289 21.798 2.9884C17.0785 3.47994 12.2395 3.33607 7.49603 3.02437C3.3978 2.74863 2.89597 4.60687 3.35001 8.02364L3.33806 8.03563Z" fill="#FBB428"/>
</svg>
