<svg width="34" height="33" viewBox="0 0 34 33" fill="none" xmlns="http://www.w3.org/2000/svg">
<path d="M32.0462 1.55572C33.4241 2.93336 33.4241 5.167 32.0462 6.54465L21.5287 17.0623L30.9667 26.5004C32.3447 27.878 32.3447 30.1117 30.9667 31.4893C29.5892 32.8669 27.3554 32.8669 25.9779 31.4893L16.5398 22.0512L7.1017 31.4893C5.72402 32.8669 3.49041 32.8669 2.11274 31.4893C0.735095 30.1117 0.735095 27.878 2.11274 26.5004L11.5509 17.0623L1.03326 6.54465C-0.344419 5.167 -0.344419 2.93336 1.03326 1.55572C2.4109 0.178041 4.64454 0.178041 6.02218 1.55572L16.5398 12.0735L27.0573 1.55572C28.4353 0.178041 30.6687 0.178041 32.0462 1.55572Z" fill="#F37421"/>
</svg>
