<svg width="215" height="75" viewBox="0 0 215 75" fill="none" xmlns="http://www.w3.org/2000/svg">
<path d="M9.5541 60.433C13.4328 60.8192 17.2948 60.6345 21.1063 59.8621C24.8507 59.1065 28.2089 57.5618 30.8955 54.7912C33.5485 52.0711 34.9421 48.6793 35.6474 45.0189C36.4869 40.7707 36.7052 36.4554 36.722 32.1402C36.7556 21.948 36.722 11.739 36.7388 1.54689C36.7388 1.12712 36.6548 0.992789 36.2015 0.992789C31.1809 1.00958 26.1436 1.00958 21.1231 0.992789C20.6362 0.992789 20.569 1.1607 20.569 1.58047C20.5858 4.16629 20.5858 6.75211 20.569 9.35472C20.5186 18.0861 20.7033 26.8342 20.4683 35.5655C20.4179 37.6644 20.2668 39.7633 19.6287 41.795C19.0075 43.8099 17.8489 45.3211 15.7332 45.9424C14.8936 46.1774 14.0205 46.3118 13.1474 46.3118C9.85634 46.3454 6.74999 45.573 3.82836 44.0618C3.52612 43.8939 3.375 43.8099 3.25746 44.2801C2.65298 46.698 2.03171 49.0991 1.39366 51.5002C0.923507 53.2465 0.554104 55.0095 0 56.7222V57.0748C0.285448 57.1252 0.470149 57.3267 0.705223 57.461C3.40858 59.1401 6.38059 60.114 9.53731 60.433H9.5541Z" fill="#F37421"/>
<path d="M159.834 59.7446C160.304 59.7446 160.405 59.6103 160.405 59.1569C160.405 39.9648 160.405 20.7726 160.405 1.58047C160.405 1.14391 160.321 0.992789 159.834 0.992789C154.343 1.00958 148.852 0.992789 143.345 0.992789C142.959 0.992789 142.774 1.09353 142.606 1.46294C139.164 8.96853 135.688 16.4573 132.229 23.9629C131.541 25.4573 130.852 26.9517 130.097 28.5637C129.963 28.2782 129.862 28.1103 129.795 27.9256C125.765 19.1439 121.735 10.379 117.739 1.58047C117.537 1.12712 117.302 0.975997 116.798 0.975997C111.341 0.992788 105.884 0.992788 100.427 0.975997C99.957 0.975997 99.8059 1.07674 99.8059 1.58047C99.8059 20.7558 99.8059 39.9312 99.8059 59.1065C99.8059 59.6271 99.9402 59.7446 100.444 59.7446C105.397 59.7278 110.334 59.7278 115.287 59.7446C115.875 59.7446 115.976 59.5767 115.976 59.0226C115.976 49.2502 115.976 39.4778 115.976 29.7055V29.1178C116.177 29.336 116.278 29.5375 116.379 29.7558C119.435 36.5058 122.491 43.239 125.53 49.989C125.714 50.3752 125.899 50.5263 126.336 50.5263C128.838 50.5095 131.323 50.4927 133.825 50.5263C134.295 50.5263 134.496 50.392 134.681 49.9722C137.552 43.5916 140.44 37.2278 143.328 30.8472C143.597 30.2428 143.882 29.6383 144.168 29.0338C144.201 29.0338 144.235 29.0506 144.252 29.0674V29.6887C144.252 39.4946 144.252 49.3174 144.252 59.1233C144.252 59.6103 144.386 59.7278 144.856 59.7278C149.843 59.711 154.83 59.711 159.817 59.7278L159.834 59.7446Z" fill="#F37421"/>
<path d="M209.972 30.142C208.259 28.5301 206.261 27.3211 204.129 26.3472C200.116 24.5002 195.901 23.3081 191.686 22.0319C190.192 21.5786 188.714 21.1084 187.388 20.2689C186.733 19.8491 186.162 19.3622 185.927 18.5898C185.423 16.9275 186.196 15.6178 188.026 15.1476C190.36 14.5431 192.677 14.8454 194.944 15.4499C198.705 16.4573 202.248 18.0021 205.606 19.9667C205.942 20.1681 206.093 20.1849 206.295 19.782C208.444 15.6178 210.627 11.4704 212.81 7.32301C212.977 7.00398 212.961 6.83607 212.608 6.66816C210.056 5.42562 207.487 4.21667 204.817 3.25958C200.384 1.68122 195.851 0.505848 191.099 0.522639C187.741 0.522639 184.836 0.992788 181.998 2.03383C176.793 3.94801 172.813 7.20547 170.58 12.3939C169.102 15.8529 168.817 19.4629 169.27 23.1569C169.774 27.3211 171.907 30.4778 175.366 32.8118C177.028 33.92 178.791 34.8099 180.621 35.5655C183.845 36.9088 187.186 37.8659 190.528 38.8566C192.241 39.3603 193.97 39.8472 195.481 40.8547C196.522 41.5431 197.227 42.433 196.992 43.7595C196.791 44.8342 195.867 45.5394 194.39 45.7241C191.972 46.0431 189.571 45.8584 187.203 45.3043C182.468 44.1961 178.086 42.2148 173.938 39.6793C173.569 39.461 173.435 39.4778 173.233 39.864C171.101 44.2297 168.968 48.5954 166.802 52.9442C166.584 53.3976 166.55 53.6327 167.071 53.9181C176.155 58.6532 185.726 61.1215 196.018 60.198C199.259 59.9125 202.382 59.1065 205.287 57.6121C209.367 55.5133 212.188 52.3565 213.582 47.9741C214.455 45.1868 214.589 42.3155 214.321 39.4275C214.002 35.8174 212.675 32.6439 209.989 30.1252L209.972 30.142Z" fill="#F37421"/>
<path d="M94.735 59.2241C95.1828 59.2241 95.3339 59.017 95.1884 58.6028C88.5391 39.4107 81.8731 20.2353 75.2406 1.04316C75.1063 0.640177 74.9384 0.52264 74.5186 0.52264C69.9514 0.52264 65.4011 0.52264 60.8339 0.52264C60.4141 0.52264 60.2294 0.656968 60.0951 1.04316C53.4123 20.2521 46.7294 39.461 40.0298 58.67C39.8619 59.1737 39.9962 59.2409 40.4496 59.2241C45.5709 59.2241 50.6921 59.2241 55.8134 59.2241C56.2164 59.2241 56.3843 59.0898 56.485 58.7204C57.4589 55.3286 58.4496 51.9368 59.457 48.545C59.5578 48.1924 59.5074 47.9909 59.2052 47.7726C57.0559 46.1607 54.9235 44.5319 52.7574 42.9368C52.388 42.6513 52.3376 42.5338 52.7574 42.2316C56.0149 39.7969 59.2723 37.3454 62.513 34.9107C62.7817 34.7092 62.9664 34.4741 63.0671 34.1383C63.6548 32.1066 64.2761 30.0749 64.8805 28.0599C65.7873 25.0543 66.694 22.0487 67.6007 19.0096C67.7854 19.1943 67.8022 19.4293 67.8526 19.6308C69.2294 24.4499 70.6231 29.2689 71.9832 34.0879C72.0671 34.4069 72.2182 34.6252 72.4869 34.8267C75.8619 37.3118 79.2201 39.7969 82.5951 42.2651C82.9981 42.5674 82.9477 42.6681 82.5951 42.9368C80.3787 44.5991 78.1958 46.2782 75.9794 47.9405C75.6772 48.1756 75.5596 48.3435 75.694 48.7465C76.735 52.0375 77.7593 55.3454 78.7667 58.6532C78.9011 59.1065 79.0858 59.2577 79.5559 59.2577C84.61 59.2409 89.6473 59.2577 94.7014 59.2577L94.735 59.2241Z" fill="white"/>
<path d="M81.4869 42.517C81.4869 42.2483 81.3861 42.198 81.319 42.1476C77.7761 39.5282 74.2499 36.9256 70.707 34.3062C70.472 34.1215 70.2201 34.0879 69.9346 34.0879C68.3731 34.0879 66.8115 34.0879 65.2667 34.0879C64.9309 34.0879 64.6791 34.1887 64.4104 34.3734C61.0186 36.9256 57.6268 39.4778 54.235 42.0301C54.1007 42.1308 53.8992 42.1812 53.9328 42.517C63.1007 43.9946 72.2854 43.9946 81.4701 42.517H81.4869Z" fill="#FBB428"/>
<path d="M81.5373 42.8696C72.2854 44.364 63.1007 44.364 53.8824 42.8696C54 42.9536 54.1007 43.0543 54.2014 43.1215C57.6604 45.7241 61.1026 48.3099 64.5447 50.9125C64.763 51.0804 64.9981 51.114 65.2499 51.114C66.8787 51.114 68.5242 51.114 70.1529 51.114C70.5223 51.114 70.8246 51.0133 71.11 50.7782C73.5279 48.9312 75.9458 47.101 78.3637 45.2707C79.4048 44.4816 80.4626 43.6756 81.5373 42.8528V42.8696Z" fill="#F37421"/>
<path d="M95.2052 66.4106V73.4461C95.2052 74.3864 95.2051 74.3696 96.179 74.3696C96.4813 74.3696 96.6156 74.3192 96.6156 73.9666C96.6156 70.6588 96.6156 67.3509 96.6156 64.0431C96.6156 63.9088 96.666 63.7577 96.5316 63.6737C96.2462 63.4722 95.1548 63.7073 94.9701 64.0263C93.9458 65.8565 92.9216 67.6868 91.8973 69.517C91.7126 69.8528 91.5783 70.2222 91.276 70.5077C90.151 68.4927 88.9925 66.4946 87.9346 64.4797C87.582 63.808 87.1958 63.5562 86.457 63.6401C86.0708 63.6905 85.9701 63.7745 85.9701 64.1439C85.9869 65.5207 85.9701 66.9144 85.9701 68.2912V73.5468C85.9701 74.3864 85.9701 74.3696 86.8432 74.4032C87.2798 74.4032 87.3973 74.3024 87.3805 73.8659C87.3637 71.3976 87.3805 68.9293 87.3805 66.4442C87.4141 66.4442 87.4477 66.4106 87.4813 66.3939C87.582 66.545 87.6828 66.7129 87.7667 66.864C88.7238 68.5767 89.6977 70.2894 90.6548 71.9853C90.8059 72.2371 90.9066 72.4554 91.2928 72.4722C91.6958 72.4722 91.8302 72.2539 91.9813 71.9685C92.9384 70.2558 93.8955 68.5431 94.8525 66.8304C94.9365 66.6961 94.9701 66.5114 95.2052 66.4106Z" fill="white"/>
<path d="M23.0541 68.7278C21.9627 65.8733 18.7388 65.6215 17.2276 67.6028C17.1772 67.67 17.1101 67.7371 16.9422 67.905C16.9422 66.5618 16.9422 65.3696 16.9422 64.1606C16.9422 63.2036 17.0933 63.3715 16.1194 63.3211C15.6492 63.2875 15.5821 63.4722 15.5989 63.8752C15.6157 66.0244 15.5989 68.1569 15.5989 70.3062C15.5989 71.5151 15.5989 72.7241 15.5989 73.933C15.5989 74.0841 15.4981 74.2688 15.7836 74.3528C16.5056 74.5375 16.791 74.336 16.791 73.5972C16.791 73.4293 16.7071 73.2446 16.8582 73.1103C18.1679 74.3864 19.1754 74.739 20.5019 74.3864C22.8022 73.7819 23.9776 71.1457 23.0541 68.7278ZM20.9888 72.6569C19.8134 73.7147 17.9664 73.4293 17.1436 72.086C16.8414 71.5823 16.9757 71.0282 16.9422 70.4909C16.8414 69.7017 16.9757 69.0133 17.5466 68.392C18.7556 67.0655 20.6698 67.2502 21.5597 68.8118C22.2817 70.0879 22.0466 71.6998 20.9888 72.6401V72.6569Z" fill="white"/>
<path d="M151.136 73.9666C152.144 73.4461 152.647 72.5897 152.647 71.4647C152.647 70.3733 152.16 69.5674 151.17 69.0804C150.632 68.8118 150.045 68.6438 149.474 68.4927C148.668 68.2912 147.828 68.1569 147.073 67.8043C146.384 67.4685 146.149 66.9983 146.25 66.2427C146.351 65.5207 146.838 65.0506 147.66 64.8995C148.013 64.8323 148.366 64.7987 148.701 64.8155C149.709 64.8323 150.632 65.2017 151.489 65.8733C151.791 65.5039 151.992 65.2521 152.043 65.0506C152.043 65.0002 152.043 64.9498 152.043 64.8995C152.043 64.8995 152.043 64.8827 152.043 64.8659C152.026 64.7483 151.942 64.6476 151.808 64.53C151.673 64.4125 151.455 64.3118 151.186 64.1606C151.086 64.1103 150.985 64.0431 150.867 64.0095C149.121 63.3883 147.375 63.2539 145.813 64.4461C144.084 65.7726 144.487 68.308 146.502 69.0972C147.005 69.2987 147.543 69.433 148.063 69.5674C148.752 69.7688 149.474 69.9032 150.129 70.2054C150.867 70.558 151.22 71.0786 151.153 71.7334C151.086 72.4218 150.649 72.9088 149.826 73.0767C148.03 73.4629 146.451 72.9424 145.024 71.8006C144.856 72.1028 144.688 72.405 144.504 72.6905C144.369 72.892 144.436 72.9759 144.604 73.1271C146.116 74.4536 149.356 74.8901 151.136 73.9834V73.9666Z" fill="white"/>
<path d="M152.06 64.8659C152.06 64.8659 152.06 64.8827 152.06 64.8995C152.06 64.8995 152.06 64.8827 152.06 64.8659Z" fill="white"/>
<path d="M148.701 64.7987C149.709 64.8155 150.632 65.1849 151.489 65.8565C150.649 65.1849 149.726 64.8155 148.701 64.7987Z" fill="white"/>
<path d="M6.22947 64.0263C6.06156 63.6065 5.79291 63.6233 5.45709 63.6233C5.10447 63.6233 4.85261 63.6401 4.70149 64.0599C4.21455 65.3528 3.66045 66.6121 3.13992 67.8883C2.26679 70.0207 1.39366 72.1532 0.48694 74.3696C0.856343 74.3696 1.125 74.336 1.39366 74.3696C1.83022 74.4368 2.04851 74.2688 2.18283 73.8323C2.45149 73.0599 2.78731 72.3211 3.07276 71.5487C3.1735 71.2968 3.30783 71.1961 3.59328 71.2129C4.81903 71.2129 6.04477 71.2297 7.27052 71.2129C7.57275 71.2129 7.72387 71.3136 7.82462 71.5991C8.0597 72.2371 8.32835 72.8584 8.58022 73.4965C8.93283 74.3696 8.93283 74.3528 9.90671 74.3696C10.2929 74.3696 10.4272 74.336 10.2425 73.8994C8.88245 70.6252 7.53917 67.3342 6.22947 64.0431V64.0263ZM7.01865 70.155C5.87686 70.155 4.73507 70.155 3.50933 70.155C4.16418 68.5263 4.80223 66.9648 5.47388 65.3024C6.09514 66.864 6.66604 68.3416 7.23693 69.8192C7.32089 70.0543 7.32089 70.1718 7.01865 70.1718V70.155Z" fill="white"/>
<path d="M131.205 69.5002C131.205 69.114 131.172 68.7278 131.088 68.3416C130.819 66.9815 129.963 66.3099 128.569 66.3435C127.394 66.3771 126.52 66.9647 125.731 68.0394C125.731 66.545 125.698 65.2521 125.731 63.9591C125.748 63.405 125.563 63.3043 125.076 63.3379C124.657 63.3715 124.287 63.2539 124.338 63.9256C124.405 65.0842 124.354 66.2595 124.354 67.4349C124.354 69.517 124.388 71.5991 124.354 73.6812C124.354 74.2688 124.522 74.4535 125.06 74.3528C125.11 74.3528 125.177 74.3528 125.228 74.3528C125.647 74.42 125.748 74.2353 125.731 73.8491C125.698 72.6569 125.765 71.4815 125.714 70.2894C125.664 69.2819 126.134 68.5767 126.907 68.0226C128.317 67.0151 129.627 67.6196 129.828 69.3155C129.845 69.5338 129.862 69.7353 129.862 69.9535C129.862 71.1289 129.862 72.2875 129.862 73.4629C129.862 74.3864 129.862 74.3696 130.802 74.3696C131.138 74.3696 131.222 74.2521 131.222 73.933C131.222 72.4554 131.222 70.9778 131.222 69.5002H131.205Z" fill="white"/>
<path d="M177.145 68.1401C176.843 66.9647 176.037 66.3435 174.828 66.3435C173.602 66.3435 172.662 66.8808 171.923 67.905C171.772 67.6868 171.839 67.4853 171.823 67.3006C171.823 66.1588 171.789 65.0002 171.823 63.8584C171.856 63.17 171.403 63.3715 171.067 63.3547C170.681 63.3211 170.446 63.3379 170.446 63.8752C170.479 67.0823 170.446 70.3062 170.446 73.5133C170.446 74.3696 170.446 74.336 171.302 74.3696C171.739 74.3696 171.806 74.2185 171.806 73.8323C171.789 72.6233 171.873 71.4144 171.772 70.2054C171.688 69.0972 172.713 67.8883 173.821 67.6028C174.778 67.3509 175.567 67.8379 175.802 68.8118C175.903 69.2483 175.936 69.7017 175.936 70.1383C175.936 71.364 175.953 72.5897 175.936 73.8155C175.936 74.2689 176.071 74.4032 176.491 74.336C176.591 74.336 176.692 74.336 176.776 74.336C177.179 74.4032 177.313 74.2521 177.297 73.8323C177.263 72.405 177.297 70.9946 177.297 69.5674C177.297 69.0804 177.246 68.5935 177.129 68.1233L177.145 68.1401Z" fill="white"/>
<path d="M199.763 74.4871C202.03 74.4871 203.742 72.7577 203.742 70.4237C203.742 68.0897 202.046 66.3435 199.78 66.3435C197.53 66.3435 195.8 68.0897 195.783 70.4069C195.783 72.7073 197.496 74.4871 199.763 74.4871ZM197.546 68.9629C198.033 68.073 198.755 67.5021 199.83 67.5189C200.921 67.5524 201.644 68.1401 202.08 69.0804C202.433 69.8192 202.466 70.5748 202.231 71.3472C201.828 72.6569 200.653 73.4629 199.41 73.2782C199.091 73.2278 198.789 73.1271 198.52 72.9591C197.714 72.4722 197.194 71.5151 197.194 70.4069C197.194 69.8864 197.278 69.3994 197.53 68.9461L197.546 68.9629Z" fill="white"/>
<path d="M186.75 66.3435C184.5 66.3435 182.787 68.1233 182.804 70.4405C182.804 72.7744 184.517 74.4871 186.8 74.4871C189.05 74.4871 190.796 72.6737 190.763 70.3901C190.729 68.073 189.017 66.3435 186.75 66.3435ZM188.463 72.6065C187.992 73.0599 187.388 73.3118 186.783 73.3118C185.423 73.3118 184.332 72.2371 184.164 70.6924C184.03 69.4834 184.735 68.2073 185.81 67.7203C186.716 67.3006 187.824 67.5524 188.563 68.3416C189.638 69.5002 189.588 71.5319 188.446 72.6233L188.463 72.6065Z" fill="white"/>
<path d="M109.259 73.0935C109.041 72.9591 109.075 72.7241 109.075 72.5058C109.075 71.4815 109.075 70.4405 109.075 69.4162C109.075 68.3248 108.705 67.3845 107.731 66.7968C106.489 66.0412 103.987 66.2595 102.912 67.2334C102.543 67.5692 102.979 67.7875 103.047 68.0394C103.131 68.3248 103.298 68.1569 103.45 68.0562C103.953 67.7539 104.474 67.5021 105.061 67.3845C106.69 67.0487 107.782 67.9554 107.714 69.5674C107.714 69.9032 107.614 69.9368 107.311 69.8528C106.186 69.5338 105.061 69.4666 103.92 69.8696C102.677 70.323 102.056 71.2633 102.224 72.3883C102.409 73.5636 103.416 74.4368 104.675 74.4871C105.901 74.5375 106.959 74.1345 107.866 73.1774C107.95 73.4797 107.899 73.7147 108.017 73.933C108.235 74.3024 108.554 74.4368 108.94 74.3864C109.125 74.3696 109.478 74.4871 109.461 74.1849C109.461 73.8155 109.729 73.3621 109.242 73.0935H109.259ZM107.261 72.7241C106.522 73.3621 105.666 73.5972 104.709 73.4125C104.054 73.2782 103.567 72.7241 103.5 72.0692C103.433 71.4983 103.785 70.9778 104.44 70.6756C104.894 70.4741 105.381 70.4405 105.867 70.4237C106.086 70.4405 106.338 70.4405 106.556 70.4909C106.942 70.5916 107.547 70.4909 107.664 70.9274C107.798 71.5319 107.849 72.2036 107.261 72.7073V72.7241Z" fill="white"/>
<path d="M35.1772 72.1364C35.1604 71.1961 35.1772 70.2726 35.1772 69.3323C35.1436 67.8043 34.3377 66.7465 32.944 66.4442C31.5671 66.142 30.291 66.4442 29.0989 67.183C28.6287 67.4685 29.0653 67.7036 29.1156 67.9554C29.1996 68.2744 29.3675 68.2073 29.5858 68.0562C30.0727 67.7371 30.6101 67.5021 31.1977 67.3845C32.7929 67.0487 33.8675 67.9386 33.8339 69.5338C33.8339 69.8696 33.7836 69.9536 33.4142 69.8528C32.3563 69.5506 31.2649 69.4666 30.1903 69.8192C29.4011 70.0711 28.7462 70.4909 28.444 71.3136C27.9403 72.7409 28.9981 74.3192 30.5765 74.4703C31.8862 74.6047 33.028 74.2017 34.0186 73.1271C34.0354 73.5468 34.0354 73.8323 34.2369 74.0841C34.472 74.3864 35.3451 74.5879 35.513 74.3192C35.7145 73.9834 35.7481 73.4293 35.513 73.2278C35.0933 72.892 35.1772 72.5058 35.1772 72.1364ZM33.7836 71.364C33.9347 72.1868 33.5653 72.6065 33.0615 72.9591C32.4235 73.3957 31.7183 73.5468 30.9459 73.4293C30.2239 73.3118 29.6865 72.7409 29.6194 72.0692C29.5522 71.4647 29.9048 70.9106 30.6101 70.642C31.6175 70.2558 32.6418 70.3901 33.6324 70.7259C34.0186 70.8603 33.7332 71.2465 33.7836 71.3472V71.364Z" fill="white"/>
<path d="M53.9664 66.461C53.5298 66.461 53.4626 66.6121 53.4626 66.9983C53.4794 68.4424 53.4626 69.8696 53.4626 71.3136C53.4626 71.8174 53.5298 72.3211 53.6809 72.808C54.0168 73.9162 54.7556 74.4703 55.9141 74.4871C57.2574 74.5207 58.3153 73.9666 59.1548 72.8752C59.3227 73.1942 59.222 73.4629 59.2723 73.698C59.3563 74.0842 59.6082 74.336 59.9944 74.3528C60.263 74.3696 60.666 74.5375 60.7835 74.2353C60.9011 73.933 60.985 73.4125 60.75 73.2446C60.3302 72.9424 60.4141 72.573 60.4141 72.2036C60.4141 70.5916 60.4141 68.9797 60.4141 67.3677C60.4141 66.3603 60.6156 66.5114 59.5242 66.461C59.1044 66.461 59.0541 66.6121 59.0541 66.9647C59.0709 68.2073 59.0205 69.4498 59.0709 70.6924C59.1044 71.6327 58.6847 72.2875 57.9794 72.808C57.3246 73.295 56.569 73.53 55.7798 73.1606C55.041 72.808 54.8731 72.086 54.8563 71.3472C54.8227 70.0039 54.8563 68.6606 54.8227 67.3174C54.8227 66.3771 55.0242 66.4946 53.9496 66.4442L53.9664 66.461Z" fill="white"/>
<path d="M43.9085 67.6532C44.9328 67.3174 45.8731 67.5524 46.5615 68.4424C46.6455 68.5431 46.7126 68.6942 46.8806 68.6271C47.25 68.5095 47.7873 68.5263 47.9384 68.2241C48.0895 67.9218 47.6194 67.6196 47.4011 67.3509C47.3507 67.2838 47.2835 67.2502 47.2164 67.1998C45.9235 66.1252 43.875 66.0412 42.4309 67.0151C41.0037 67.9722 40.3656 69.8696 40.8862 71.6159C41.4067 73.3957 42.9011 74.5039 44.7481 74.4871C46.0578 74.4871 47.1996 73.9162 47.8376 73.0095C48.1063 72.6401 48.1063 72.4554 47.6026 72.3211C47.1156 72.1868 46.7966 72.1196 46.3936 72.6065C45.5877 73.5468 44.0597 73.53 43.1362 72.7073C42.3134 71.9685 42.0112 71.0282 42.1455 69.9703C42.2798 68.8789 42.8339 68.0058 43.9253 67.6532H43.9085Z" fill="white"/>
<path d="M163.545 72.3883C163.024 73.0431 162.336 73.3453 161.496 73.3118C159.985 73.2446 158.826 71.7166 159.045 70.0039C159.179 68.8957 159.716 67.989 160.841 67.6364C161.866 67.3174 162.806 67.5356 163.494 68.4591C163.578 68.5767 163.662 68.6774 163.83 68.6271C164.199 68.4927 164.754 68.5263 164.871 68.2073C164.989 67.9218 164.552 67.586 164.3 67.3341C164.25 67.2838 164.183 67.2334 164.132 67.183C162.856 66.1252 160.825 66.0412 159.38 66.9983C157.953 67.9386 157.298 69.8528 157.802 71.5823C158.323 73.3621 159.8 74.4871 161.647 74.4871C162.991 74.4871 164.216 73.8994 164.804 72.9424C164.888 72.808 165.022 72.6905 164.972 72.5226C164.871 72.2539 163.729 72.1532 163.545 72.3883Z" fill="white"/>
<path d="M71.1436 70.3397C70.6902 70.1718 70.2201 70.0543 69.7499 69.92C69.2294 69.7689 68.6921 69.6681 68.1884 69.4666C67.416 69.1644 67.332 68.1905 68.0037 67.7036C68.3059 67.4853 68.6585 67.3845 69.0447 67.3677C69.9179 67.3174 70.707 67.5356 71.3955 68.0562C71.7985 68.3584 71.832 67.9218 71.9832 67.7707C72.1343 67.6196 72.3358 67.4685 72.0335 67.2166C70.8917 66.2595 68.541 66.0748 67.2985 66.8976C66.5093 67.4181 66.207 68.1737 66.291 69.0972C66.3749 69.9703 66.9962 70.2894 67.7014 70.5244C68.1212 70.6588 68.5578 70.7595 68.9943 70.8939C69.4981 71.045 70.0018 71.1793 70.4888 71.364C70.8749 71.5151 71.1436 71.7838 71.1604 72.2371C71.1604 72.6905 70.9589 73.0095 70.5895 73.2446C70.3712 73.3789 70.1361 73.4461 69.8843 73.4797C68.7929 73.6308 67.7854 73.3789 66.8955 72.7409C66.5596 72.5058 66.4085 72.5226 66.1903 72.8752C65.9888 73.211 65.8544 73.4461 66.3078 73.698C67.2481 74.2353 68.2387 74.5039 69.3134 74.5207C70.0186 74.5375 70.707 74.4368 71.3451 74.0841C72.1511 73.6308 72.5373 72.9256 72.5037 72.0188C72.4701 71.1457 71.916 70.6588 71.1436 70.3733V70.3397Z" fill="white"/>
<path d="M118.31 73.1103C117.336 73.4293 116.815 73.0431 116.815 72.0188C116.815 70.9442 116.815 69.8696 116.815 68.8118C116.815 67.586 116.815 67.5692 118.041 67.586C118.427 67.586 118.578 67.5189 118.578 67.0823C118.578 66.6121 118.494 66.3939 117.974 66.461C117.705 66.4946 117.436 66.461 117.151 66.461C116.866 66.4778 116.782 66.3603 116.798 66.0916C116.815 65.4703 116.798 64.8491 116.798 64.2278C116.798 63.9592 116.748 63.8248 116.446 63.8584C116.261 63.8752 116.06 63.8752 115.858 63.8584C115.506 63.8248 115.422 63.9759 115.438 64.295C115.455 64.8659 115.422 65.42 115.438 65.9909C115.455 66.3939 115.304 66.4946 114.935 66.4778C114.75 66.4778 114.481 66.3603 114.364 66.6121C114.129 67.0823 114.414 67.586 114.935 67.5524C115.354 67.5189 115.455 67.6868 115.438 68.0898C115.405 68.8621 115.438 69.6513 115.438 70.4237C115.438 71.2465 115.422 72.0524 115.438 72.8752C115.455 73.7315 115.858 74.2017 116.698 74.4032C117.369 74.5711 117.991 74.3696 118.645 74.2017C119.267 74.0338 119.065 73.6812 118.964 73.2782C118.83 72.7073 118.528 73.0263 118.276 73.1103H118.31Z" fill="white"/>
<path d="M212.054 73.1271C211.03 73.3285 210.694 73.0599 210.694 72.0021C210.694 69.3994 210.694 66.78 210.694 64.1774C210.694 63.3379 210.694 63.3715 209.871 63.3379C209.418 63.3211 209.317 63.4722 209.334 63.892C209.334 64.614 209.334 65.3528 209.334 66.0748C209.334 66.7968 209.334 67.5356 209.334 68.2577C209.334 69.0133 209.334 69.7521 209.334 70.5077C209.334 71.2632 209.334 72.0021 209.334 72.7576C209.334 73.7147 209.804 74.2856 210.643 74.42C211.214 74.5039 211.768 74.42 212.306 74.2185C212.86 74.017 212.423 73.6308 212.44 73.3285C212.44 73.0263 212.272 73.0767 212.054 73.1103V73.1271Z" fill="white"/>
</svg>
