<svg width="120" height="121" viewBox="0 0 120 121" fill="none" xmlns="http://www.w3.org/2000/svg">
<path d="M71.4619 6.23633L67.8764 8.30644L65.1586 3.59906C64.3363 2.20834 63.0013 1.19667 61.4435 0.783796C59.8857 0.370925 58.231 0.590205 56.8389 1.394C55.4467 2.1978 54.4295 3.52119 54.0082 5.0767C53.587 6.63222 53.7956 8.29421 54.5889 9.70166L57.3066 14.4089L43.8267 22.1915L41.1089 17.4841C40.2956 16.0755 38.9588 15.046 37.3926 14.6221C35.8264 14.1982 34.1591 14.4147 32.7575 15.2239C31.3559 16.0332 30.3347 17.3689 29.9187 18.9372C29.5027 20.5054 29.7259 22.1779 30.5392 23.5866L33.257 28.2939L19.7771 36.0765L17.0593 31.3692C16.246 29.9605 14.9092 28.931 13.3431 28.5071C11.7769 28.0832 10.1096 28.2997 8.70793 29.109C7.3063 29.9182 6.28515 31.2539 5.86914 32.8222C5.45312 34.3905 5.67631 36.0629 6.48961 37.4716L9.20741 42.179L5.37463 44.3918C3.24817 45.6334 1.70342 47.672 1.0792 50.0604C0.454977 52.4489 0.80226 54.9921 2.04487 57.1323L35.8473 115.68C37.0794 117.826 39.1083 119.398 41.4888 120.052C43.8693 120.706 46.4072 120.387 48.5457 119.166L114.633 81.0108C116.759 79.7692 118.304 77.7306 118.928 75.3422C119.553 72.9538 119.205 70.4105 117.963 68.2703L84.1604 9.72285C82.9282 7.57661 80.8994 6.00424 78.5188 5.35062C76.1383 4.69702 73.6004 5.01554 71.4619 6.23633ZM57.602 7.96182C57.2655 7.35712 57.1791 6.64506 57.3614 5.9793C57.5437 5.31354 57.9801 4.74745 58.5764 4.40318C59.1727 4.05891 59.8812 3.96407 60.5489 4.13912C61.2166 4.31417 61.79 4.74507 62.1454 5.33884L64.8632 10.0461L60.3198 12.6692L57.602 7.96182ZM33.5524 21.8469C33.2159 21.2422 33.1295 20.5301 33.3118 19.8644C33.494 19.1986 33.9304 18.6325 34.5268 18.2883C35.1231 17.944 35.8315 17.8491 36.4992 18.0242C37.1669 18.1992 37.7404 18.6301 38.0958 19.2239L40.8135 23.9312L36.2702 26.5543L33.5524 21.8469ZM9.50273 35.732C9.16624 35.1273 9.07982 34.4152 9.26211 33.7494C9.4444 33.0837 9.88078 32.5176 10.4771 32.1733C11.0734 31.8291 11.7819 31.7342 12.4496 31.9093C13.1173 32.0843 13.6907 32.5152 14.0461 33.109L16.7639 37.8163L12.2205 40.4393L9.50273 35.732ZM7.12296 47.4202L10.9557 45.2073L12.647 48.1366C13.1407 48.9782 13.8261 49.6912 14.6469 50.2169C15.4677 50.7426 16.4004 51.066 17.3683 51.1606C18.3362 51.2551 19.3117 51.118 20.2145 50.7606C21.1173 50.4033 21.9217 49.8358 22.5615 49.1049C22.8536 48.7542 22.9962 48.302 22.9585 47.8456C22.9209 47.3892 22.706 46.9651 22.3602 46.6646C22.0143 46.3641 21.5652 46.2113 21.1095 46.239C20.6538 46.2668 20.228 46.4729 19.9237 46.8129C19.6485 47.127 19.3026 47.3709 18.9144 47.5245C18.5262 47.678 18.1068 47.7369 17.6906 47.6963C17.2745 47.6557 16.8735 47.5168 16.5205 47.2909C16.1675 47.065 15.8727 46.7586 15.6602 46.3969L13.969 43.4677L35.0054 31.3223L36.6966 34.2515C37.5112 35.6588 38.8479 36.6872 40.4136 37.1109C41.9792 37.5346 43.6459 37.3192 45.048 36.5117C46.3828 35.8276 47.9115 34.0871 46.4299 32.7554C46.2566 32.6049 46.0556 32.49 45.8384 32.4172C45.6211 32.3444 45.3919 32.3152 45.1638 32.3312C44.9357 32.3472 44.7131 32.4081 44.5089 32.5105C44.3046 32.6129 44.1226 32.7547 43.9734 32.9278C43.6982 33.242 43.3523 33.486 42.9641 33.6396C42.5759 33.7932 42.1565 33.8522 41.7403 33.8116C41.3241 33.771 40.923 33.632 40.57 33.406C40.217 33.1801 39.9222 32.8736 39.7098 32.5118L38.0186 29.5826L59.055 17.4372L60.7463 20.3665C61.2399 21.2081 61.9253 21.9212 62.7461 22.4469C63.5669 22.9726 64.4997 23.2961 65.4676 23.3906C66.4355 23.4851 67.411 23.3481 68.3138 22.9906C69.2167 22.6332 70.021 22.0657 70.6608 21.3347C70.9528 20.9841 71.0954 20.5319 71.0577 20.0755C71.02 19.6191 70.8051 19.195 70.4593 18.8946C70.1135 18.5941 69.6644 18.4413 69.2088 18.469C68.7531 18.4967 68.3273 18.7028 68.023 19.0428C67.7478 19.3571 67.402 19.6011 67.0137 19.7548C66.6255 19.9084 66.2061 19.9674 65.7899 19.9268C65.3737 19.8862 64.9726 19.7471 64.6196 19.5211C64.2666 19.2951 63.9718 18.9886 63.7594 18.6267L62.0683 15.6975L73.2103 9.26465C74.5494 8.50405 76.137 8.3083 77.6249 8.72033C79.1129 9.13236 80.3796 10.1185 81.1472 11.4625L85.5486 19.0859C85.2464 19.0755 84.9473 19.1464 84.6823 19.2912L9.37742 62.8739L5.05807 55.3926C4.27796 54.0558 4.05726 52.4658 4.44438 50.9712C4.8315 49.4766 5.79475 48.1996 7.12296 47.4202ZM112.885 77.9825L46.7973 116.138C45.4582 116.899 43.8706 117.094 42.3827 116.682C40.8948 116.27 39.6281 115.284 38.8605 113.94L11.1258 65.9023L86.4336 22.3179C86.6902 22.161 86.9002 21.9382 87.0419 21.6724L114.95 70.01C115.73 71.3467 115.95 72.9368 115.563 74.4314C115.176 75.926 114.213 77.2031 112.885 77.9825Z" fill="#FBB428"/>
<path d="M35.1984 61.2684L25.4776 66.8807C25.2798 66.9949 25.1064 67.1471 24.9675 67.3287C24.8286 67.5104 24.7269 67.7178 24.6682 67.9392C24.6095 68.1606 24.5949 68.3916 24.6252 68.619C24.6556 68.8464 24.7304 69.0658 24.8453 69.2647L29.9402 78.0894C30.055 78.2883 30.2076 78.4627 30.3894 78.6028C30.5711 78.7428 30.7785 78.8457 30.9996 78.9055C31.2207 78.9653 31.4512 78.981 31.6779 78.9515C31.9047 78.922 32.1232 78.848 32.321 78.7337L42.0418 73.1214C42.2397 73.0072 42.413 72.855 42.5519 72.6734C42.6908 72.4918 42.7925 72.2843 42.8513 72.0629C42.91 71.8415 42.9246 71.6105 42.8942 71.3831C42.8638 71.1557 42.7891 70.9363 42.6742 70.7374L37.5792 61.9127C37.4645 61.7138 37.3119 61.5394 37.1301 61.3993C36.9483 61.2593 36.741 61.1564 36.5199 61.0966C36.2988 61.0368 36.0683 61.0211 35.8415 61.0506C35.6148 61.0801 35.3963 61.1541 35.1984 61.2684ZM38.7868 70.963L32.0792 74.8356L28.7327 69.0392L35.4402 65.1665L38.7868 70.963Z" fill="#FBB428"/>
<path d="M56.5762 48.9259L46.8554 54.5382C46.6575 54.6524 46.4842 54.8046 46.3453 54.9863C46.2064 55.1679 46.1047 55.3753 46.046 55.5967C45.9873 55.8181 45.9727 56.0491 46.003 56.2765C46.0334 56.504 46.1082 56.7234 46.223 56.9222L51.318 65.7469C51.4328 65.9458 51.5854 66.1203 51.7672 66.2603C51.9489 66.4003 52.1563 66.5032 52.3774 66.563C52.5985 66.6229 52.829 66.6385 53.0557 66.609C53.2825 66.5795 53.501 66.5056 53.6988 66.3913L63.4196 60.779C63.6175 60.6648 63.7908 60.5125 63.9297 60.3309C64.0686 60.1493 64.1703 59.9418 64.2291 59.7205C64.2878 59.4991 64.3024 59.2681 64.272 59.0406C64.2416 58.8132 64.1669 58.5938 64.052 58.395L58.957 49.5702C58.8423 49.3713 58.6896 49.1969 58.5079 49.0569C58.3261 48.9168 58.1187 48.814 57.8977 48.7541C57.6766 48.6943 57.4461 48.6787 57.2193 48.7081C56.9926 48.7376 56.7741 48.8116 56.5762 48.9259ZM60.1646 58.6205L53.457 62.4931L50.1104 56.6967L56.818 52.8241L60.1646 58.6205Z" fill="#FBB428"/>
<path d="M77.954 36.5834L68.2318 42.1966C68.0339 42.3108 67.8605 42.463 67.7216 42.6446C67.5827 42.8262 67.481 43.0337 67.4223 43.2551C67.3636 43.4765 67.349 43.7075 67.3794 43.9349C67.4098 44.1623 67.4845 44.3817 67.5994 44.5806L72.6943 53.4053C72.8091 53.6042 72.9617 53.7786 73.1435 53.9187C73.3253 54.0587 73.5326 54.1616 73.7537 54.2214C73.9748 54.2812 74.2053 54.2969 74.432 54.2674C74.6588 54.2379 74.8773 54.1639 75.0751 54.0496L84.7974 48.4365C84.9953 48.3223 85.1686 48.1701 85.3075 47.9884C85.4464 47.8068 85.5481 47.5994 85.6068 47.378C85.6656 47.1566 85.6802 46.9256 85.6498 46.6981C85.6194 46.4707 85.5446 46.2513 85.4298 46.0525L80.3348 37.2278C80.2201 37.0289 80.0674 36.8544 79.8857 36.7144C79.7039 36.5744 79.4965 36.4715 79.2754 36.4117C79.0543 36.3518 78.8239 36.3362 78.5971 36.3657C78.3704 36.3951 78.1519 36.4691 77.954 36.5834ZM81.5424 46.278L74.8333 50.1515L71.4868 44.3551L78.1958 40.4816L81.5424 46.278Z" fill="#FBB428"/>
<path d="M47.6029 82.7536L37.8821 88.3659C37.6842 88.48 37.5109 88.6323 37.372 88.8139C37.2331 88.9955 37.1314 89.203 37.0727 89.4244C37.0139 89.6458 36.9993 89.8768 37.0297 90.1042C37.0601 90.3316 37.1349 90.551 37.2497 90.7499L42.3447 99.5746C42.4595 99.7735 42.6121 99.9479 42.7938 100.088C42.9756 100.228 43.183 100.331 43.4041 100.391C43.6252 100.451 43.8557 100.466 44.0824 100.437C44.3091 100.407 44.5277 100.333 44.7255 100.219L54.4463 94.6066C54.6442 94.4924 54.8175 94.3402 54.9564 94.1586C55.0953 93.9769 55.197 93.7695 55.2557 93.5481C55.3145 93.3267 55.3291 93.0957 55.2987 92.8683C55.2683 92.6409 55.1935 92.4214 55.0787 92.2226L49.9837 83.3979C49.869 83.199 49.7163 83.0246 49.5346 82.8845C49.3528 82.7445 49.1454 82.6416 48.9243 82.5818C48.7032 82.522 48.4727 82.5063 48.246 82.5358C48.0193 82.5653 47.8007 82.6393 47.6029 82.7536ZM51.1913 92.4481L44.4837 96.3208L41.1371 90.5244L47.8447 86.6517L51.1913 92.4481Z" fill="#FBB428"/>
<path d="M68.9807 70.4111L59.2599 76.0234C59.062 76.1376 58.8887 76.2898 58.7498 76.4714C58.6109 76.6531 58.5092 76.8605 58.4505 77.0819C58.3917 77.3033 58.3771 77.5343 58.4075 77.7617C58.4379 77.9892 58.5127 78.2086 58.6275 78.4074L63.7225 87.2321C63.8372 87.431 63.9899 87.6055 64.1716 87.7455C64.3534 87.8855 64.5608 87.9884 64.7819 88.0482C65.003 88.108 65.2335 88.1237 65.4602 88.0942C65.6869 88.0647 65.9055 87.9907 66.1033 87.8764L75.8241 82.2641C76.022 82.15 76.1953 81.9977 76.3342 81.8161C76.4731 81.6345 76.5748 81.427 76.6335 81.2056C76.6923 80.9843 76.7069 80.7532 76.6765 80.5258C76.6461 80.2984 76.5713 80.079 76.4565 79.8801L71.3615 71.0554C71.2468 70.8565 71.0941 70.6821 70.9124 70.542C70.7306 70.402 70.5232 70.2992 70.3021 70.2393C70.081 70.1795 69.8505 70.1639 69.6238 70.1933C69.3971 70.2228 69.1785 70.2968 68.9807 70.4111ZM72.5691 80.1057L65.8615 83.9783L62.5149 78.1819L69.2225 74.3092L72.5691 80.1057Z" fill="#FBB428"/>
<path d="M90.3585 58.0686L80.6362 63.6818C80.4383 63.7959 80.265 63.9482 80.1261 64.1298C79.9872 64.3114 79.8855 64.5189 79.8268 64.7403C79.768 64.9617 79.7535 65.1927 79.7838 65.4201C79.8142 65.6475 79.889 65.8669 80.0038 66.0657L85.0988 74.8905C85.2136 75.0894 85.3662 75.2638 85.548 75.4039C85.7297 75.5439 85.9371 75.6468 86.1582 75.7066C86.3793 75.7664 86.6098 75.782 86.8365 75.7526C87.0632 75.7231 87.2818 75.6491 87.4796 75.5348L97.2019 69.9217C97.3998 69.8075 97.5731 69.6552 97.712 69.4736C97.8509 69.292 97.9526 69.0846 98.0113 68.8632C98.0701 68.6418 98.0847 68.4108 98.0543 68.1833C98.0239 67.9559 97.9491 67.7365 97.8343 67.5377L92.7393 58.7129C92.6245 58.514 92.4719 58.3396 92.2901 58.1996C92.1084 58.0595 91.901 57.9567 91.6799 57.8968C91.4588 57.837 91.2283 57.8214 91.0016 57.8509C90.7749 57.8803 90.5563 57.9543 90.3585 58.0686ZM93.9469 67.7632L87.2378 71.6367L83.8912 65.8403L90.6003 61.9668L93.9469 67.7632Z" fill="#FBB428"/>
</svg>
