<svg width="179" height="193" viewBox="0 0 179 193" fill="none" xmlns="http://www.w3.org/2000/svg">
<path d="M162.035 80.9847C162.808 79.2227 164.468 78.2212 165.601 76.768C166.878 75.1265 167.719 73.4322 166.517 71.6703C161.93 76.0828 157.388 80.4501 152.845 84.8249C152.658 85.0508 152.462 85.2767 152.275 85.4951L152.312 85.4273C149.842 85.3897 147.522 86.1954 145.172 86.8505C143.348 87.355 141.501 87.7766 139.564 87.626C145.698 81.06 151.832 74.494 157.966 67.9279C158.731 67.1072 159.542 66.309 160.233 65.428C161.284 64.0802 162.185 62.1375 160.804 61.0682C159.512 60.0743 158.626 62.2128 157.755 63.1013C149.309 71.7983 140.923 80.5555 132.521 89.2977C129.788 89.373 127.13 90.1786 124.428 90.5175C123.196 90.6756 121.957 90.7283 120.696 90.5777C131.042 78.7257 142.327 67.7547 153.04 56.2491C153.641 55.6091 154.212 54.9465 154.85 54.3441C155.984 53.2748 155.511 52.3788 154.64 51.4601C153.498 50.2478 152.883 51.3397 152.237 52.0173C146.614 57.8982 141.02 63.8016 135.389 69.6749C128.414 76.9487 121.417 84.1999 114.427 91.4587C113.796 91.2855 113.166 91.1349 112.527 90.9843C111.777 90.8112 111.033 90.6304 110.298 90.4121C108.946 90.0055 107.64 89.4633 106.484 88.5221C119.465 74.7951 132.446 61.0758 145.435 47.3488C146.036 46.7088 146.621 46.0537 147.244 45.4438C148.25 44.4498 147.725 43.7194 146.936 42.9213C146.148 42.108 145.517 42.1608 144.767 42.9589C141.336 46.6034 137.537 49.9692 134.571 53.96C133.107 55.9329 131.207 57.1828 129.593 58.8243C120.839 67.7472 112.723 77.3026 103.54 85.8113C101.949 85.0508 100.868 83.9063 100.102 82.5283C100.087 82.4982 100.064 82.4681 100.049 82.438C100.004 82.3476 99.9591 82.2572 99.9141 82.1593C99.5237 81.3762 99.2158 80.5329 98.9831 79.6368C103.833 74.4187 108.646 69.1628 113.549 63.9973C121.469 55.6392 129.428 47.3112 137.439 39.0434C138.452 37.9967 139.699 37.2287 138.317 35.7679C136.943 34.3071 135.9 35.3688 134.894 36.4305C125.501 46.3323 116.116 56.2341 106.694 66.0982C103.758 69.1703 100.702 72.1145 97.7067 75.1265C96.9484 74.125 96.5655 72.9729 96.2427 71.7907C96.115 71.3163 95.9949 70.842 95.8673 70.3751C95.7997 70.1417 95.7321 69.9083 95.6646 69.6748C95.612 69.5092 95.5595 69.336 95.4994 69.1703C95.3793 68.839 95.2516 68.5077 95.1015 68.1915C94.9513 67.8752 94.7786 67.559 94.5759 67.2653C100.365 61.1285 106.153 54.9991 111.979 48.8322C117.806 42.6652 123.662 36.4531 129.586 30.1807C126.552 28.607 124.773 30.1732 123.046 31.9879C114.172 41.3325 105.297 50.6695 96.4079 59.999C95.642 60.8047 94.7561 61.4974 93.9302 62.2429C93.0518 61.0155 92.6163 59.6451 92.3085 58.2445C92.2635 58.0412 92.2259 57.8454 92.1884 57.6421C92.0833 57.1 91.9932 56.5654 91.8956 56.0232C91.7679 55.3003 91.6253 54.585 91.4301 53.8847C99.6138 45.1501 107.797 36.4155 115.974 27.6808C116.792 26.8074 117.558 25.8812 118.451 24.8571C115.523 23.5244 113.781 24.9701 112.054 26.7697C104.802 34.3222 97.519 41.837 90.2438 49.3593C89.6357 46.2796 89.0275 43.2074 88.4194 40.1277C92.5638 35.0827 97.1437 30.4518 101.904 26.0092C103.518 24.5032 106.371 22.3497 105.147 21.0696C103.285 19.1194 100.965 21.4913 99.2834 23.2457C95.4844 27.1989 91.6478 31.1144 87.8338 35.045C87.2782 33.1852 87.083 31.2952 87.0229 29.3901C87.0154 29.119 87.0079 28.848 87.0079 28.5769C86.9929 27.2742 87.0304 25.964 87.0529 24.6538C88.1641 23.3888 89.2152 22.0636 90.409 20.8814C92.4437 18.8709 90.8144 18.6902 89.2678 18.4116C89.6582 17.252 90.3489 16.5818 91.1748 16.1225C91.355 16.0246 91.5427 15.9267 91.7379 15.8514C92.0157 15.7385 92.2935 15.6331 92.5788 15.5427C92.7815 15.4825 92.9842 15.4222 93.1945 15.3695C93.4948 15.2867 93.7951 15.2114 94.0879 15.1361C94.5309 15.0156 94.9663 14.8951 95.3793 14.737C111.589 8.47217 128.114 2.9528 145.375 0.836909C158.018 -0.714236 159.655 -1.55759 165.339 12.0037C171.705 27.2065 175.497 43.1396 178.372 59.2912C179.101 63.3724 179.776 67.9355 176.841 71.6326C173.027 76.4291 168.342 80.0435 162.05 81.0223L162.035 80.9847Z" fill="#F37421"/>
<path d="M100.027 82.4304C100.027 82.4304 100.064 82.4907 100.079 82.5208C100.064 82.4907 100.042 82.4605 100.027 82.4304Z" fill="#F37421"/>
<path d="M95.8448 70.3676C95.9724 70.842 96.0925 71.3164 96.2202 71.7832C96.0925 71.3088 95.9724 70.8344 95.8448 70.3676Z" fill="#F37421"/>
<path d="M114.419 91.4587C113.789 91.2855 113.158 91.1349 112.52 90.9843C113.158 91.1349 113.796 91.2855 114.419 91.4587Z" fill="#F37421"/>
<path d="M110.29 90.4121C111.018 90.6304 111.769 90.8112 112.52 90.9843C111.769 90.8112 111.026 90.6304 110.29 90.4121Z" fill="#F37421"/>
<path d="M91.7229 15.8138C91.5277 15.8966 91.34 15.987 91.1598 16.0849C91.34 15.987 91.5277 15.8891 91.7229 15.8138Z" fill="#F37421"/>
<path d="M87.8188 35.0074C87.2632 33.1475 87.068 31.2575 87.0079 29.3525C87.068 31.25 87.2632 33.14 87.8188 35.0074Z" fill="#F37421"/>
<path d="M90.2213 49.3216C89.6132 46.2419 89.005 43.1622 88.4044 40.09C89.0125 43.1697 89.6207 46.2419 90.2288 49.3216L90.2213 49.3216Z" fill="#F37421"/>
<path d="M93.9077 62.2203C93.0293 60.9929 92.5938 59.6225 92.286 58.2219C92.5938 59.63 93.0218 60.9929 93.9077 62.2203Z" fill="#F37421"/>
<path d="M129.578 58.8243C131.192 57.1753 133.092 55.9329 134.556 53.96C137.521 49.9692 141.321 46.6034 144.752 42.9589C145.502 42.1608 146.133 42.108 146.921 42.9213C147.702 43.727 148.235 44.4498 147.229 45.4438C146.606 46.0612 146.021 46.7163 145.42 47.3488C132.439 61.0758 119.457 74.7951 106.469 88.5221C105.74 89.1998 104.982 89.8323 104.299 90.5476C79.6125 116.48 54.9338 142.428 30.2251 168.346C29.219 169.4 28.228 171.396 26.396 169.724C24.5416 168.03 26.4336 166.968 27.4397 165.854C34.2344 158.294 41.5246 151.216 48.6121 143.934C60.5723 131.646 72.3598 119.184 84.1023 106.677C84.9132 105.811 85.739 104.952 86.5574 104.094C92.331 98.1076 98.3074 92.3096 103.533 85.8113C112.715 77.3026 120.831 67.7472 129.586 58.8243L129.578 58.8243Z" fill="#FBB428"/>
<path d="M86.5499 104.094C92.3235 98.1076 98.2999 92.3096 103.525 85.8113C98.2924 92.3096 92.316 98.1 86.5499 104.094Z" fill="#FBB428"/>
<path d="M106.679 66.0906C116.101 56.2265 125.486 46.3172 134.879 36.423C135.885 35.3613 136.928 34.2996 138.302 35.7604C139.684 37.2287 138.437 37.9967 137.424 39.0359C129.413 47.3112 121.454 55.6317 113.534 63.9898C108.631 69.1628 103.818 74.4187 98.9681 79.6293C98.6603 79.8326 98.2999 79.9832 98.0521 80.2468C75.5282 103.913 53.0118 127.587 30.4879 151.253C27.5523 154.341 24.5716 157.375 21.6285 160.455C20.7726 161.351 19.8941 161.998 18.783 160.929C17.6042 159.8 18.5052 158.911 19.256 158.06C19.7515 157.496 20.2771 156.953 20.7951 156.411C38.3938 137.895 56.03 119.417 73.5836 100.856C74.5897 99.7867 75.6108 98.725 76.6244 97.6633C78.156 96.067 79.7026 94.4782 81.2418 92.8894C86.8652 87.0989 92.4812 81.2934 97.6917 75.1114C100.695 72.107 103.751 69.1553 106.679 66.0831L106.679 66.0906Z" fill="#FBB428"/>
<path d="M81.2418 92.8969C86.8652 87.1065 92.4812 81.3009 97.6917 75.1189C92.4812 81.3009 86.8652 87.0989 81.2418 92.8969Z" fill="#FBB428"/>
<path d="M135.382 69.6749C141.013 63.8016 146.606 57.8906 152.23 52.0173C152.875 51.3397 153.491 50.2478 154.632 51.4601C155.503 52.3863 155.976 53.2748 154.842 54.3441C154.204 54.9465 153.626 55.6091 153.033 56.2491C142.319 67.7547 131.035 78.7257 120.689 90.5777C119.773 91.4211 118.804 92.2117 117.948 93.1078C91.7904 120.577 65.6552 148.053 39.4974 175.514C38.5665 176.493 37.7856 178.285 35.9161 176.636C33.7539 174.724 36.2165 173.986 36.9522 173.203C48.3568 161.08 59.8816 149.07 71.3387 136.992C78.5314 129.409 85.709 121.827 92.8941 114.229C100.072 106.639 107.249 99.0413 114.434 91.4587C121.424 84.1999 128.422 76.9487 135.397 69.6749L135.382 69.6749Z" fill="#FBB428"/>
<path d="M92.8866 114.229C100.064 106.639 107.242 99.0413 114.427 91.4587C107.249 99.0488 100.072 106.639 92.8866 114.229Z" fill="#FBB428"/>
<path d="M93.9077 62.2203C94.7336 61.4748 95.6195 60.7821 96.3853 59.9764C105.275 50.6469 114.149 41.3023 123.024 31.9653C124.75 30.1506 126.53 28.5844 129.563 30.1582C123.639 36.4381 117.776 42.6427 111.957 48.8096C106.131 54.9766 100.342 61.1134 94.5534 67.2427C93.8326 67.9279 93.0743 68.5755 92.3836 69.2983C70.9859 91.79 49.5957 114.289 28.2055 136.788C23.3403 141.909 18.4526 147.006 13.2196 152.488C11.9582 149.175 13.2646 147.428 14.9614 145.644C31.6366 128.159 48.3043 110.667 64.9044 93.1077C67.3295 90.5401 69.7771 87.995 72.2322 85.4574C74.6423 82.965 77.0448 80.4651 79.4474 77.9652C79.5525 77.8523 79.6576 77.7468 79.7627 77.6339C81.452 75.8644 83.1338 74.0873 84.8081 72.2952C86.6625 70.3149 88.4945 68.3119 90.3039 66.2939C91.5202 64.9461 92.729 63.5907 93.9152 62.2203L93.9077 62.2203Z" fill="#FBB428"/>
<path d="M90.2964 66.2939C88.4795 68.3119 86.6475 70.3149 84.8005 72.2952C86.655 70.3149 88.487 68.3119 90.2964 66.2939Z" fill="#FBB428"/>
<path d="M90.2964 66.2939C91.5127 64.9461 92.7215 63.5907 93.9077 62.2203C92.7215 63.5907 91.5052 64.9461 90.2964 66.2939Z" fill="#FBB428"/>
<path d="M157.74 63.1013C158.604 62.2128 159.49 60.0668 160.789 61.0682C162.178 62.1375 161.269 64.0802 160.218 65.428C159.527 66.309 158.724 67.1072 157.951 67.9279C151.817 74.494 145.683 81.06 139.549 87.626C132.333 94.2071 125.944 101.601 119.202 108.642C96.5355 132.331 73.974 156.125 51.4051 179.912C49.6332 181.779 47.9139 183.398 45.0608 182.246C45.1885 180.831 46.2621 180.236 46.9979 179.46C65.3624 160.139 83.7569 140.847 102.114 121.518C112.28 110.81 122.378 100.05 132.506 89.3127C140.908 80.5706 149.294 71.8133 157.74 63.1163L157.74 63.1013Z" fill="#FBB428"/>
<path d="M102.114 121.503C112.28 110.795 122.378 100.035 132.506 89.2977C122.378 100.035 112.28 110.803 102.114 121.503Z" fill="#FBB428"/>
<path d="M112.032 26.7321C113.751 24.94 115.501 23.4942 118.429 24.8195C117.535 25.8435 116.769 26.7697 115.951 27.6432C107.775 36.3853 99.5912 45.1124 91.4076 53.8471C90.5742 54.5925 89.6882 55.2778 88.9224 56.0835C66.2258 79.9305 43.5893 103.83 20.8176 127.602C16.4555 132.158 11.5753 136.209 6.95041 140.478C5.92933 138.385 7.506 136.63 9.15025 134.898C24.932 118.295 40.7363 101.714 56.488 85.0885C64.2587 76.896 71.9919 68.6734 79.7327 60.4508C83.2239 56.7386 86.7226 53.0263 90.2138 49.3141C97.489 41.7918 104.779 34.277 112.024 26.7245L112.032 26.7321Z" fill="#FBB428"/>
<path d="M152.267 85.4876C152.455 85.2617 152.65 85.0433 152.838 84.8174C157.38 80.4501 161.922 76.0828 166.51 71.6627C167.719 73.4323 166.878 75.1265 165.594 76.7605C164.46 78.2137 162.801 79.2227 162.028 80.9772C160.916 81.9786 159.738 82.9123 158.716 83.9891C138.528 105.186 118.354 126.397 98.1722 147.601C86.2796 160.101 74.3795 172.585 62.4868 185.085C60.775 186.885 59.0707 188.609 55.7972 187.178C57.0586 185.823 58.0421 184.731 59.0557 183.669C76.3766 165.447 93.72 147.232 111.033 128.995C117.918 121.736 124.803 114.477 131.673 107.211C138.543 99.9449 145.427 92.6786 152.305 85.4123L152.267 85.48L152.267 85.4876Z" fill="#FBB428"/>
<path d="M99.2684 23.2156C100.95 21.4687 103.27 19.0893 105.132 21.0395C106.348 22.312 103.503 24.4731 101.889 25.9791C97.1286 30.4217 92.5488 35.0526 88.4044 40.0976C87.8413 40.5795 87.2256 41.0237 86.7151 41.5584C72.7277 56.2491 58.7554 70.9474 44.7756 85.6381C30.9759 100.141 17.1688 114.636 3.28652 129.221C1.40203 126.224 3.12886 124.319 4.87821 122.474C21.1855 105.321 37.5229 88.2058 53.8077 71.0377C59.5513 64.9837 65.2798 58.9222 71.0009 52.8456C76.6094 46.897 82.2103 40.9484 87.8188 35.0074C91.6403 31.0768 95.4694 27.1613 99.2684 23.2081L99.2684 23.2156Z" fill="#FBB428"/>
<path d="M168.469 90.6304C155.413 104.297 142.379 117.994 129.353 131.691C111.319 150.651 93.292 169.611 75.2654 188.579C73.3584 190.582 71.3688 192.291 68.1328 190.936C102.287 155.063 136.223 119.41 170.527 83.3792C171.878 86.9408 170.249 88.763 168.462 90.6304L168.469 90.6304Z" fill="#FBB428"/>
<path d="M90.394 20.8513C89.2002 22.0334 88.1491 23.3587 87.0379 24.6237C86.4748 25.0981 85.8667 25.5273 85.3561 26.0619C58.1022 54.7281 30.8558 83.4018 3.57934 112.053C2.67838 113.002 2.0402 114.327 0.403468 114.681C-0.670171 112.015 0.553628 110.163 2.25794 108.378C29.9623 79.2754 57.6442 50.1575 85.3637 21.0621C85.6339 20.776 85.8967 20.4748 86.1745 20.1736C86.3472 19.9853 86.5199 19.8046 86.7001 19.6314C87.2406 19.1118 87.8413 18.6676 88.6071 18.4793C88.8098 18.4266 89.0275 18.3965 89.2528 18.3815C90.7994 18.6601 92.4286 18.8408 90.394 20.8513Z" fill="#FBB428"/>
<path d="M170.969 104.854C164.265 111.774 157.673 118.8 151.028 125.787C130.494 147.36 109.96 168.941 89.448 190.529C87.6761 192.396 85.8141 193.729 82.7133 192.562C112.813 160.914 142.709 129.477 172.967 97.6633C173.965 100.931 172.846 102.919 170.969 104.854Z" fill="#FBB428"/>
<path d="M71.594 23.6599C51.0447 45.3609 30.4504 67.0243 9.79594 88.62C6.72518 91.8352 3.24899 94.6589 0.170724 97.4675C-0.114579 94.6664 1.41705 92.302 3.59436 90.028C20.2771 72.5889 36.8847 55.0744 53.5148 37.5901C58.5977 32.2439 63.6881 26.8977 68.8011 21.5816C70.2126 20.1133 72.8929 18.6826 73.8464 19.6841C75.288 21.1976 72.6677 22.5229 71.594 23.6599Z" fill="#FBB428"/>
<path d="M170.879 121.819C149.399 144.348 127.971 166.938 106.506 189.482C104.434 191.659 103.203 191.862 100.132 191.086C124.277 165.711 148.446 140.312 173.169 114.342C172.809 117.617 172.711 119.899 170.879 121.819Z" fill="#FBB428"/>
<path d="M5.40378 74.6144C6.69515 71.3766 8.15921 68.3195 10.6669 65.7217C22.0565 53.9224 33.3184 42.0026 44.6254 30.128C46.7352 27.9143 49.438 26.8676 52.7415 26.6191C37.2601 42.8836 21.7787 59.1481 6.29723 75.4126L5.40378 74.6144Z" fill="#FBB428"/>
<path d="M167.005 139.266C165.429 143.844 162.598 147.549 159.242 150.997C150.015 160.485 140.938 170.131 131.8 179.716C129.338 182.299 126.372 183.752 122.949 183.94C137.634 168.527 152.327 153.106 167.501 137.188C167.231 138.34 167.163 138.822 167.005 139.266Z" fill="#FBB428"/>
</svg>
