<svg width="102" height="77" viewBox="0 0 102 77" fill="none" xmlns="http://www.w3.org/2000/svg">
<path d="M98.8906 5.38707C99.109 5.40783 99.317 5.39745 99.5146 5.38707C100.097 5.32479 100.565 5.1172 100.95 4.78505C101.449 4.33872 101.792 3.6848 102 2.88556C101.75 1.47392 101.022 0.332151 99.7537 0.0622783C99.577 0.0207594 99.3794 0 99.1714 0C97.5179 0 96.4363 1.2767 96.4779 2.90632C96.5091 4.22454 97.4035 5.2729 98.8906 5.37669V5.38707Z" fill="#F37421"/>
<path d="M99.577 24.0706C97.7675 23.6969 96.9771 24.984 96.5091 26.4787C96.322 27.0703 96.8523 27.8695 96.5715 28.4404C97.2059 28.4612 97.7675 29.0736 98.381 29.1878C100.097 29.5095 101.438 28.8556 101.802 27.2779C102.177 25.6898 101.21 24.3923 99.577 24.0602V24.0706Z" fill="#F37421"/>
<path d="M2.33283 0.0518986C0.991315 0.384049 -0.121413 1.08987 0.0241777 2.58455C0.200966 4.35948 1.52168 5.0134 3.19597 4.90961C4.63108 4.81619 5.68141 4.08961 5.45263 2.53265C5.21344 0.861516 4.06952 0.0207594 2.33283 0.0518986Z" fill="#F37421"/>
<path d="M26.9064 0.0622783C25.5129 -0.0622783 24.3482 0.757719 24.1714 2.13822C23.9426 3.94429 25.2114 4.71239 26.5633 4.91999C28.2584 4.9615 29.5063 4.51518 29.5895 2.97898C29.6831 1.26633 28.5599 0.207594 26.9064 0.0622783Z" fill="#F37421"/>
<path d="M50.5233 0.0934174C49.161 0.311391 48.0899 1.16253 48.2771 2.63645C48.4954 4.38024 49.8266 5.03416 51.5009 4.89923C52.9568 4.78505 53.8303 4.03771 53.7159 2.1486C53.1544 0.996453 52.3016 -0.186835 50.5233 0.0934174Z" fill="#F37421"/>
<path d="M99.1506 72.1079C98.277 72.1702 97.5179 72.4608 97.0395 73.0109C96.8939 73.177 96.7795 73.3846 96.6859 73.6026C96.6027 73.7998 96.53 74.0177 96.5091 74.2565C96.3116 76.0003 97.4971 76.9241 99.1402 76.9967C100.523 77.059 101.626 76.2286 101.782 74.8896C101.802 74.6717 101.813 74.4641 101.792 74.2772C101.678 72.9486 100.565 72.3259 99.1506 72.1183V72.1079Z" fill="#F37421"/>
<path d="M74.473 72.2117C73.1315 72.4816 72.1435 73.4053 72.3723 74.8066C72.6427 76.4362 73.8698 77.2458 75.5545 76.9241C76.9272 76.6646 77.676 75.7615 77.7176 74.3395C77.1976 72.741 76.1577 71.8795 74.4626 72.2117H74.473Z" fill="#F37421"/>
<path d="M2.7072 28.9283C4.09031 28.9594 5.17184 28.129 5.30704 26.7693C5.47343 25.0047 4.21511 24.2574 2.49922 24.0083C1.3033 24.2678 0.13857 24.8698 0.0137783 26.2607C-0.142212 28.0252 1.04331 28.9075 2.7072 28.9386V28.9283Z" fill="#F37421"/>
<path d="M50.5545 72.1805C49.1922 72.3362 48.1731 73.2081 48.2563 74.6094C48.3603 76.3117 49.5562 77.1317 51.2409 76.9552C52.624 76.8099 53.4247 75.938 53.6015 74.516C53.2375 72.8864 52.2496 71.9937 50.5441 72.1909L50.5545 72.1805Z" fill="#F37421"/>
<path d="M27.2392 24.1432C25.5649 23.8733 24.3482 24.683 24.1506 26.3645C23.9842 27.7761 24.9514 28.6688 26.3241 28.8764C28.0192 29.1359 29.0591 28.3055 29.4959 26.6447C29.4231 25.2227 28.5703 24.3612 27.2392 24.1432Z" fill="#F37421"/>
<path d="M50.6169 28.8971C52.2912 29.0217 53.4871 28.2121 53.5391 26.4787C53.5911 25.0463 52.5096 24.3508 50.8769 23.9875C49.6394 24.2263 48.2563 24.7349 48.2563 26.5306C48.2563 27.9214 49.2234 28.7933 50.6169 28.8971Z" fill="#F37421"/>
<path d="M74.733 28.8971C76.4176 29.0217 77.6032 28.2121 77.6656 26.4787C77.7072 25.0463 76.636 24.3404 75.3049 24.0498C73.641 24.0809 72.4139 24.7971 72.3723 26.5306C72.3411 27.9214 73.3394 28.7933 74.733 28.8971Z" fill="#F37421"/>
<path d="M74.733 4.89923C76.4176 5.02378 77.6032 4.21416 77.6656 2.48075C77.7072 1.04835 76.636 0.342531 75.3049 0.0518986C73.641 0.0830377 72.4139 0.799238 72.3723 2.53265C72.3411 3.92353 73.3394 4.79543 74.733 4.89923Z" fill="#F37421"/>
<path d="M2.94639 48.0892C1.2825 48.1204 0.0449763 48.8262 0.0137783 50.5596C-0.00702031 51.9401 0.991315 52.8224 2.38483 52.9262C4.06952 53.0507 5.25504 52.2307 5.30704 50.4973C5.34863 49.0649 4.2775 48.3695 2.94639 48.0788V48.0892Z" fill="#F37421"/>
<path d="M27 52.9677C28.3727 52.7601 29.4231 52.0335 29.4335 50.6219C29.4335 48.8885 28.2272 48.0373 26.5841 48.1204C25.2322 48.1826 24.1714 49.0234 24.1506 50.435C24.1298 52.1892 25.3465 52.9054 27 52.9677Z" fill="#F37421"/>
<path d="M27.1248 72.1805C25.4401 72.0041 24.2442 72.8345 24.1506 74.5264C24.0674 75.9172 25.0762 76.7891 26.4489 76.9448C28.144 77.142 29.1527 76.2598 29.4959 74.6198C29.3087 73.2081 28.5183 72.3259 27.1352 72.1805H27.1248Z" fill="#F37421"/>
<path d="M50.3777 52.8846C52.0728 53.2064 53.1128 52.3553 53.6223 50.736C53.5807 49.314 52.78 48.4318 51.4385 48.1723C49.7538 47.8505 48.537 48.6809 48.2771 50.3105C48.0587 51.7117 49.0258 52.6252 50.3777 52.8846Z" fill="#F37421"/>
<path d="M74.421 52.8743C76.1161 53.2479 77.1664 52.3968 77.728 50.8191C77.7488 49.3763 76.948 48.494 75.6273 48.1826C73.9426 47.7986 72.7051 48.629 72.3931 50.2378C72.1227 51.6079 73.0691 52.5836 74.421 52.8743Z" fill="#F37421"/>
<path d="M98.6826 48.1619C97.3619 48.3799 96.3116 49.2518 96.4883 50.6842C96.7067 52.3553 97.9027 53.1545 99.5977 52.9054C100.981 52.6978 101.75 51.8155 101.854 50.3831C101.397 48.7535 100.357 47.8816 98.6826 48.1619Z" fill="#F37421"/>
<path d="M2.59281 72.1079C2.07285 72.1598 1.60488 72.2947 1.1993 72.5127C0.668936 72.8033 0.273762 73.2393 0.096973 73.8413C0.0553757 73.9866 0.0241777 74.1527 0.0137783 74.3188C-0.131812 76.0626 1.07451 76.9552 2.7176 76.976C4.10071 76.9967 5.17185 76.1664 5.29664 74.8066C5.31744 74.5886 5.31744 74.381 5.29664 74.1942C5.14065 72.8656 4.02792 72.2636 2.60321 72.1079H2.59281Z" fill="#F37421"/>
</svg>
