<svg width="322" height="297" viewBox="0 0 322 297" fill="none" xmlns="http://www.w3.org/2000/svg">
<path d="M321.188 0C321.462 0 321.726 0 322 0.010158V165.586C321.726 165.586 321.462 165.586 321.188 165.586C285.39 165.586 251.741 179.543 226.432 204.887C201.771 229.581 187.914 262.189 187.214 297H21.8638C23.3549 132.714 156.792 0 321.188 0Z" fill="#FEF8F4"/>
<path d="M280.977 207C273.277 209.55 266.177 213.45 258.893 216.935C254.845 218.865 250.757 220.571 246.588 221.892C245.198 222.328 243.798 222.725 242.388 223.07C238.858 223.933 235.267 224.502 231.575 224.655C230.834 224.685 230.094 224.705 229.353 224.705C228.613 224.705 227.862 224.685 227.111 224.655C226.361 224.624 225.6 224.563 224.839 224.492C215.182 221.851 207.868 217.117 202.491 210.698C197.115 204.278 193.666 196.172 191.738 186.786C188.573 171.356 195.187 161.624 210.505 158.384C226.442 155.001 240.278 147.799 251.63 135.935C262.312 124.751 270.985 112.073 279.171 99.0406C284.213 91.0158 289.184 82.9605 296.122 76.3781C303.365 69.5113 311.521 64.8284 322 66.0271V229.531C318.997 225.295 316.106 220.967 312.972 216.823C304.309 205.395 294.661 202.459 280.977 207Z" fill="#F37421"/>
<path d="M223.551 110.611C228.613 110.529 232.65 114.369 232.731 119.347C232.812 124.233 228.755 128.479 223.896 128.59C219.138 128.702 214.776 124.517 214.644 119.702C214.512 114.897 218.631 110.692 223.54 110.611H223.551Z" fill="#FBB428"/>
<path d="M3.03314 151.06C2.8201 151.08 2.61719 151.07 2.42444 151.06C1.85638 150.999 1.39993 150.796 1.0246 150.471C0.537659 150.034 0.202911 149.394 0 148.612C0.243469 147.23 0.953613 146.113 2.19119 145.849C2.36365 145.808 2.55634 145.788 2.75922 145.788C4.37216 145.788 5.42719 147.037 5.3866 148.632C5.35617 149.922 4.48376 150.948 3.03314 151.05V151.06Z" fill="#FBB428"/>
<path d="M2.35352 169.344C4.11859 168.979 4.8895 170.238 5.34598 171.701C5.52856 172.28 5.01126 173.062 5.28516 173.621C4.66635 173.641 4.11859 174.24 3.52008 174.352C1.84628 174.667 0.537659 174.027 0.182617 172.483C-0.182587 170.929 0.760864 169.659 2.35352 169.334V169.344Z" fill="#FBB428"/>
<path d="M97.222 145.839C98.5306 146.164 99.616 146.854 99.474 148.317C99.3015 150.054 98.0132 150.694 96.38 150.593C94.9801 150.501 93.9555 149.79 94.1787 148.266C94.412 146.631 95.5279 145.808 97.222 145.839Z" fill="#FBB428"/>
<path d="M73.2411 145.849C74.6004 145.727 75.7366 146.529 75.909 147.88C76.1322 149.648 74.8946 150.4 73.5759 150.603C71.9224 150.643 70.705 150.207 70.6239 148.703C70.5326 147.027 71.6282 145.991 73.2411 145.849Z" fill="#FBB428"/>
<path d="M50.2138 145.879C51.5427 146.093 52.5875 146.926 52.4049 148.368C52.1919 150.074 50.8934 150.714 49.2602 150.582C47.84 150.471 46.9879 149.739 47.0995 147.891C47.6473 146.763 48.4791 145.605 50.2138 145.879Z" fill="#FBB428"/>
<path d="M2.77951 216.356C3.63162 216.416 4.37219 216.701 4.83881 217.239C4.98083 217.402 5.09238 217.605 5.18365 217.818C5.26483 218.011 5.33588 218.225 5.35617 218.458C5.54889 220.165 4.39246 221.069 2.78967 221.14C1.44049 221.201 0.365204 220.388 0.213043 219.078C0.192749 218.865 0.182617 218.661 0.202911 218.479C0.314484 217.178 1.3999 216.569 2.77951 216.366V216.356Z" fill="#FBB428"/>
<path d="M26.8416 216.457C28.1502 216.721 29.1139 217.625 28.8907 218.997C28.6269 220.591 27.4299 221.384 25.7866 221.069C24.4475 220.815 23.7172 219.931 23.6766 218.54C24.1838 216.975 25.1982 216.132 26.8517 216.457H26.8416Z" fill="#FBB428"/>
<path d="M96.8568 174.098C95.5076 174.129 94.4526 173.316 94.3207 171.985C94.1584 170.258 95.3859 169.527 97.0597 169.283C98.2262 169.537 99.3624 170.126 99.4841 171.488C99.6363 173.214 98.4799 174.078 96.8568 174.108V174.098Z" fill="#FBB428"/>
<path d="M50.1732 216.427C51.5021 216.579 52.4962 217.432 52.4151 218.804C52.3136 220.47 51.1471 221.272 49.5037 221.099C48.1545 220.957 47.3734 220.104 47.201 218.712C47.556 217.117 48.5197 216.244 50.1833 216.437L50.1732 216.427Z" fill="#FBB428"/>
<path d="M72.9266 169.405C74.5599 169.141 75.7467 169.933 75.9395 171.579C76.1018 172.961 75.1584 173.834 73.8193 174.037C72.1658 174.291 71.1514 173.479 70.7253 171.853C70.7964 170.462 71.6282 169.619 72.9266 169.405Z" fill="#FBB428"/>
<path d="M50.1225 174.068C48.4893 174.19 47.3227 173.397 47.272 171.701C47.2213 170.299 48.2762 169.619 49.8689 169.263C51.076 169.497 52.4252 169.994 52.4252 171.752C52.4252 173.113 51.4818 173.966 50.1225 174.068Z" fill="#FBB428"/>
<path d="M26.5981 174.068C24.9548 174.19 23.7983 173.397 23.7374 171.701C23.6968 170.299 24.7417 169.608 26.0402 169.324C27.6632 169.354 28.8603 170.055 28.9008 171.752C28.9313 173.113 27.9575 173.966 26.5981 174.068Z" fill="#FBB428"/>
<path d="M26.5981 150.582C24.9548 150.704 23.7983 149.912 23.7374 148.216C23.6968 146.814 24.7417 146.123 26.0402 145.839C27.6632 145.869 28.8603 146.57 28.9008 148.266C28.9313 149.628 27.9575 150.481 26.5981 150.582Z" fill="#FBB428"/>
<path d="M96.6235 192.85C98.2466 192.88 99.4537 193.571 99.4841 195.267C99.5044 196.618 98.5306 197.482 97.1712 197.584C95.5279 197.705 94.3715 196.903 94.3207 195.207C94.2802 193.805 95.325 193.124 96.6235 192.84V192.85Z" fill="#FBB428"/>
<path d="M73.1599 197.624C71.8209 197.421 70.7964 196.71 70.7862 195.328C70.7862 193.632 71.9629 192.799 73.5657 192.88C74.8845 192.941 75.9192 193.764 75.9395 195.146C75.9597 196.862 74.7729 197.563 73.1599 197.624Z" fill="#FBB428"/>
<path d="M73.0382 216.427C74.6816 216.254 75.8482 217.067 75.9395 218.722C76.0206 220.084 75.0366 220.937 73.6976 221.089C72.0441 221.282 71.0601 220.419 70.7253 218.814C70.9079 217.432 71.6789 216.569 73.0281 216.427H73.0382Z" fill="#FBB428"/>
<path d="M50.3558 197.543C48.7023 197.858 47.6879 197.025 47.1908 195.44C47.2314 194.049 48.0125 193.185 49.3211 192.931C50.9644 192.616 52.1513 193.429 52.4049 195.024C52.618 196.395 51.6746 197.289 50.3558 197.543Z" fill="#FBB428"/>
<path d="M26.9024 197.533C25.2489 197.898 24.2244 197.065 23.6766 195.521C23.6563 194.109 24.4374 193.246 25.7257 192.941C27.369 192.565 28.5762 193.378 28.8806 194.953C29.1443 196.293 28.2212 197.248 26.9024 197.533Z" fill="#FBB428"/>
<path d="M3.23602 192.921C4.52435 193.134 5.54886 193.988 5.3764 195.389C5.16339 197.025 3.99683 197.807 2.34332 197.563C0.994141 197.36 0.243469 196.497 0.142029 195.095C0.588379 193.5 1.60281 192.647 3.23602 192.921Z" fill="#FBB428"/>
<path d="M96.9582 216.356C97.4654 216.406 97.9219 216.538 98.3176 216.752C98.8349 217.036 99.2204 217.463 99.3928 218.052C99.4334 218.194 99.4639 218.357 99.474 218.519C99.616 220.226 98.4393 221.099 96.8365 221.12C95.4873 221.14 94.4425 220.327 94.3207 218.997C94.3004 218.783 94.3004 218.58 94.3207 218.397C94.4729 217.097 95.5583 216.508 96.9481 216.356H96.9582Z" fill="#FBB428"/>
</svg>
