<svg width="16" height="16" viewBox="0 0 16 16" fill="none" xmlns="http://www.w3.org/2000/svg">
<path d="M15.0217 1.0068C15.6676 1.65257 15.6676 2.69959 15.0217 3.34536L10.0916 8.27553L14.5157 12.6996C15.1616 13.3454 15.1616 14.3924 14.5157 15.0382C13.8699 15.6839 12.8229 15.6839 12.1771 15.0382L7.75304 10.6141L3.32892 15.0382C2.68314 15.6839 1.63613 15.6839 0.990346 15.0382C0.344576 14.3924 0.344576 13.3454 0.990346 12.6996L5.41449 8.27553L0.48434 3.34536C-0.161447 2.69959 -0.161447 1.65257 0.48434 1.0068C1.13011 0.361014 2.17713 0.361014 2.8229 1.0068L7.75304 5.93699L12.6831 1.0068C13.329 0.361014 14.3759 0.361014 15.0217 1.0068Z" fill="#F37421"/>
</svg>
