<svg width="28" height="20" viewBox="0 0 28 20" fill="none" xmlns="http://www.w3.org/2000/svg">
<path d="M14.1606 19.5H14.1334C14.0494 19.5 5.63823 19.4837 3.51612 18.9074C2.3492 18.5931 1.43787 17.6812 1.12417 16.5141C0.742566 14.3614 0.558302 12.1781 0.573638 9.99186C0.56378 7.80196 0.753048 5.61572 1.13908 3.46011C1.46141 2.29194 2.36873 1.3759 3.53374 1.04239C5.59755 0.5 13.7768 0.5 14.124 0.5H14.1524C14.2379 0.5 22.6707 0.516271 24.7711 1.09256C25.9356 1.40852 26.8451 2.31851 27.1604 3.48316C27.5541 5.64397 27.7389 7.83762 27.7122 10.0339C27.7217 12.2211 27.532 14.4046 27.1454 16.5575C26.8277 17.7231 25.9158 18.633 24.7494 18.9481C22.6883 19.4946 14.5077 19.5 14.1606 19.5ZM11.4486 5.9307L11.4418 14.0666L18.5092 9.99864L11.4486 5.9307Z" fill="white"/>
</svg>
