<svg width="24" height="22" viewBox="0 0 24 22" fill="none" xmlns="http://www.w3.org/2000/svg">
<path d="M5.04096 2.44553C5.04064 3.0938 4.7828 3.71539 4.32418 4.17356C3.86555 4.63173 3.2437 4.88894 2.59543 4.88862C1.94716 4.88829 1.32557 4.63046 0.867401 4.17183C0.409234 3.71321 0.15202 3.09136 0.152344 2.44309C0.152668 1.79482 0.410504 1.17323 0.86913 0.715057C1.32776 0.25689 1.9496 -0.00032383 2.59787 3.05981e-07C3.24615 0.000324441 3.86774 0.25816 4.3259 0.716786C4.78407 1.17541 5.04129 1.79726 5.04096 2.44553ZM5.11429 6.69863H0.225673V22H5.11429V6.69863ZM12.8383 6.69863H7.97413V22H12.7894V13.9704C12.7894 9.49736 18.6191 9.08183 18.6191 13.9704V22H23.4466V12.3083C23.4466 4.76762 14.8182 5.04872 12.7894 8.75185L12.8383 6.69863Z" fill="#1A365F"/>
</svg>
