<svg width="37" height="26" viewBox="0 0 37 26" fill="none" xmlns="http://www.w3.org/2000/svg">
<path d="M35.4384 3.92772C35.2353 3.1715 34.8372 2.48187 34.2839 1.92786C33.7306 1.37384 33.0415 0.97487 32.2855 0.770869C29.5029 0.0224611 18.3484 0.0224609 18.3484 0.0224609C18.3484 0.0224609 7.19394 0.0224608 4.4113 0.766888C3.65501 0.970228 2.96554 1.36898 2.41212 1.9231C1.8587 2.47721 1.46082 3.16719 1.25843 3.92373C0.514007 6.71036 0.514008 12.5225 0.514008 12.5225C0.514008 12.5225 0.514007 18.3346 1.25843 21.1172C1.66847 22.6538 2.87866 23.864 4.4113 24.2741C7.19394 25.0225 18.3484 25.0225 18.3484 25.0225C18.3484 25.0225 29.5029 25.0225 32.2855 24.2741C33.8221 23.864 35.0283 22.6538 35.4384 21.1172C36.1828 18.3346 36.1828 12.5225 36.1828 12.5225C36.1828 12.5225 36.1828 6.71036 35.4384 3.92772ZM14.8054 17.8569V7.18807L24.0411 12.4827L14.8054 17.8569Z" fill="white"/>
</svg>
