<svg width="23" height="22" viewBox="0 0 23 22" fill="none" xmlns="http://www.w3.org/2000/svg">
<path d="M11.7148 7.7C10.8396 7.7 10.0002 8.04768 9.38133 8.66655C8.76246 9.28542 8.41478 10.1248 8.41478 11C8.41478 11.8752 8.76246 12.7146 9.38133 13.3335C10.0002 13.9523 10.8396 14.3 11.7148 14.3C12.59 14.3 13.4294 13.9523 14.0482 13.3335C14.6671 12.7146 15.0148 11.8752 15.0148 11C15.0148 10.1248 14.6671 9.28542 14.0482 8.66655C13.4294 8.04768 12.59 7.7 11.7148 7.7ZM11.7148 5.5C13.1735 5.5 14.5724 6.07946 15.6039 7.11091C16.6353 8.14236 17.2148 9.54131 17.2148 11C17.2148 12.4587 16.6353 13.8576 15.6039 14.8891C14.5724 15.9205 13.1735 16.5 11.7148 16.5C10.2561 16.5 8.85715 15.9205 7.8257 14.8891C6.79425 13.8576 6.21478 12.4587 6.21478 11C6.21478 9.54131 6.79425 8.14236 7.8257 7.11091C8.85715 6.07946 10.2561 5.5 11.7148 5.5ZM18.8648 5.225C18.8648 5.58967 18.7199 5.93941 18.4621 6.19727C18.2042 6.45513 17.8545 6.6 17.4898 6.6C17.1251 6.6 16.7754 6.45513 16.5175 6.19727C16.2596 5.93941 16.1148 5.58967 16.1148 5.225C16.1148 4.86033 16.2596 4.51059 16.5175 4.25273C16.7754 3.99487 17.1251 3.85 17.4898 3.85C17.8545 3.85 18.2042 3.99487 18.4621 4.25273C18.7199 4.51059 18.8648 4.86033 18.8648 5.225ZM11.7148 2.2C8.99338 2.2 8.54898 2.2077 7.28288 2.2638C6.42048 2.3045 5.84188 2.42 5.30508 2.629C4.82768 2.8138 4.48338 3.0349 4.11708 3.4023C3.77279 3.73494 3.50807 4.14104 3.34268 4.5903C3.13368 5.1293 3.01818 5.7068 2.97858 6.5681C2.92138 7.7825 2.91478 8.2071 2.91478 11C2.91478 13.7214 2.92248 14.1658 2.97858 15.4319C3.01928 16.2932 3.13478 16.8729 3.34268 17.4086C3.52968 17.8871 3.74968 18.2314 4.11488 18.5966C4.48558 18.9662 4.82988 19.1873 5.30288 19.3699C5.84628 19.58 6.42488 19.6966 7.28288 19.7362C8.49728 19.7934 8.92188 19.8 11.7148 19.8C14.4362 19.8 14.8806 19.7923 16.1467 19.7362C17.0069 19.6955 17.5866 19.58 18.1234 19.3721C18.5997 19.1862 18.9462 18.9651 19.3114 18.5999C19.6821 18.2292 19.9032 17.8849 20.0858 17.4119C20.2948 16.8696 20.4114 16.2899 20.451 15.4319C20.5082 14.2175 20.5148 13.7929 20.5148 11C20.5148 8.2786 20.5071 7.8342 20.451 6.5681C20.4103 5.7079 20.2948 5.1271 20.0858 4.5903C19.92 4.1415 19.6558 3.73556 19.3125 3.4023C18.98 3.05783 18.5738 2.79308 18.1245 2.6279C17.5855 2.4189 17.0069 2.3034 16.1467 2.2638C14.9323 2.2066 14.5077 2.2 11.7148 2.2ZM11.7148 0C14.7035 0 15.0764 0.0109999 16.249 0.0659999C17.4205 0.121 18.218 0.3047 18.9198 0.5775C19.6458 0.8569 20.2574 1.2353 20.869 1.8458C21.4283 2.39569 21.8611 3.06085 22.1373 3.795C22.409 4.4957 22.5938 5.2943 22.6488 6.4658C22.7005 7.6384 22.7148 8.0113 22.7148 11C22.7148 13.9887 22.7038 14.3616 22.6488 15.5342C22.5938 16.7057 22.409 17.5032 22.1373 18.205C21.8619 18.9396 21.429 19.6049 20.869 20.1542C20.3189 20.7134 19.6538 21.1461 18.9198 21.4225C18.2191 21.6942 17.4205 21.879 16.249 21.934C15.0764 21.9857 14.7035 22 11.7148 22C8.72608 22 8.35318 21.989 7.18058 21.934C6.00908 21.879 5.21158 21.6942 4.50978 21.4225C3.77534 21.1469 3.11006 20.714 2.56058 20.1542C2.00113 19.6044 1.56831 18.9392 1.29228 18.205C1.01948 17.5043 0.835783 16.7057 0.780783 15.5342C0.729083 14.3616 0.714783 13.9887 0.714783 11C0.714783 8.0113 0.725783 7.6384 0.780783 6.4658C0.835783 5.2932 1.01948 4.4968 1.29228 3.795C1.56754 3.0604 2.00047 2.39505 2.56058 1.8458C3.11022 1.28615 3.77545 0.853302 4.50978 0.5775C5.21158 0.3047 6.00798 0.121 7.18058 0.0659999C8.35318 0.0142999 8.72608 0 11.7148 0Z" fill="#1A365F"/>
</svg>
