<svg width="46" height="22" viewBox="0 0 46 22" fill="none" xmlns="http://www.w3.org/2000/svg">
<path opacity="0.2" d="M11.3042 0.515052C13.0266 -0.662075 13.737 0.411795 14.6663 1.41132C15.736 2.56367 15.5626 3.59623 14.4102 4.5875C13.2331 5.59942 12.0973 6.6609 10.8375 7.79259C11.8288 8.15605 12.5351 7.8752 13.2579 7.74716C22.2453 6.15287 31.1502 6.57416 40.0344 8.64756C43.6649 9.49426 45.2922 11.77 45.9159 15.1734C46.139 16.4001 45.9696 16.9618 44.6273 16.2968C43.3262 15.6484 41.9509 15.2106 40.5094 15.033C35.3176 14.401 30.1011 14.0458 24.8763 14.2854C22.4395 14.3969 19.953 14.3267 17.5162 14.8967C17.7144 15.8136 18.3794 16.1192 18.8461 16.5983C19.9448 17.7259 21.2169 18.7172 21.9521 20.1504C22.2123 20.6584 22.8566 21.2697 22.2577 21.8025C21.663 22.3311 21.1012 21.6703 20.6428 21.3151C16.5414 18.1307 11.866 16.3712 6.71551 16.4083C3.70868 16.429 2.06483 14.9338 0.565536 12.7365C-0.28117 11.4933 -0.16552 10.5681 0.842266 9.46122C3.96888 6.04549 7.47548 3.11712 11.3042 0.506792V0.515052Z" fill="#1A365F"/>
</svg>
