<svg width="46" height="23" viewBox="0 0 46 23" fill="none" xmlns="http://www.w3.org/2000/svg">
<path opacity="0.2" d="M34.6964 1.03751C32.9741 -0.139614 32.2637 0.934256 31.3344 1.93378C30.2646 3.08613 30.4381 4.1187 31.5905 5.10996C32.7676 6.12188 33.9034 7.18336 35.1631 8.31505C34.1719 8.67852 33.4656 8.39766 32.7428 8.26962C23.7553 6.67533 14.8505 7.09662 5.96626 9.17002C2.33575 10.0167 0.708424 12.2925 0.0847526 15.6958C-0.138282 16.9225 0.0310591 17.4843 1.3734 16.8193C2.67443 16.1708 4.04981 15.733 5.49128 15.5554C10.683 14.9235 15.8996 14.5683 21.1244 14.8078C23.5612 14.9194 26.0476 14.8491 28.4845 15.4191C28.2862 16.336 27.6213 16.6417 27.1546 17.1208C26.0559 18.2484 24.7838 19.2396 24.0486 20.6728C23.7884 21.1808 23.1441 21.7921 23.7429 22.3249C24.3377 22.8536 24.8994 22.1928 25.3579 21.8376C29.4592 18.6531 34.1347 16.8936 39.2852 16.9308C42.292 16.9514 43.9358 15.4563 45.4351 13.259C46.2818 12.0158 46.1662 11.0906 45.1584 9.98368C42.0318 6.56795 38.5252 3.63958 34.6964 1.02925V1.03751Z" fill="#1A365F"/>
</svg>
