<svg width="40" height="40" viewBox="0 0 40 40" fill="none" xmlns="http://www.w3.org/2000/svg">
<path d="M8.86484 24.1725L7.4725 29.3703L2.38352 29.478C0.862656 26.6571 0 23.4297 0 20C0 16.6835 0.806563 13.556 2.23625 10.8022H2.23734L6.76797 11.6328L8.75266 16.1362C8.33727 17.3473 8.11086 18.6473 8.11086 20C8.11102 21.4681 8.37695 22.8748 8.86484 24.1725Z" fill="#FBBB00"/>
<path d="M39.6505 16.2638C39.8802 17.4736 40 18.723 40 20C40 21.4319 39.8495 22.8286 39.5627 24.1759C38.5891 28.7605 36.0451 32.7637 32.5209 35.5967L32.5198 35.5956L26.8133 35.3045L26.0056 30.2627C28.3441 28.8913 30.1716 26.7451 31.1342 24.1759H20.4397V16.2638H39.6505Z" fill="#518EF8"/>
<path d="M32.5198 35.5956L32.5209 35.5967C29.0934 38.3516 24.7395 40 20 40C12.3835 40 5.76156 35.7429 2.38352 29.478L8.86484 24.1726C10.5538 28.6802 14.9022 31.8891 20 31.8891C22.1912 31.8891 24.244 31.2967 26.0055 30.2627L32.5198 35.5956Z" fill="#28B446"/>
<path d="M32.7659 4.60437L26.2868 9.90875C24.4638 8.76922 22.3088 8.11094 20 8.11094C14.7868 8.11094 10.3571 11.467 8.75274 16.1362L2.23734 10.8022H2.23625C5.56484 4.38461 12.2703 0 20 0C24.8527 0 29.3022 1.72859 32.7659 4.60437Z" fill="#F14336"/>
</svg>
