<svg width="28" height="29" viewBox="0 0 28 29" fill="none" xmlns="http://www.w3.org/2000/svg">
<path d="M19.7802 17.3858C19.497 17.1285 19.1249 16.9912 18.7424 17.003C18.36 17.0148 17.997 17.1748 17.7303 17.4492L14.2038 21.0759C13.3549 20.9138 11.6484 20.3818 9.89178 18.6296C8.13515 16.8715 7.60315 15.1606 7.44547 14.3176L11.0693 10.7896C11.344 10.5231 11.5042 10.1601 11.516 9.7775C11.5278 9.39491 11.3904 9.02273 11.1326 8.73972L5.68736 2.75215C5.42953 2.46825 5.07118 2.29605 4.68843 2.27211C4.30568 2.24817 3.92867 2.37438 3.63747 2.62393L0.439574 5.36646C0.18479 5.62217 0.032718 5.96249 0.012205 6.32288C-0.00990028 6.6913 -0.431374 15.4185 6.33578 22.1886C12.2394 28.0907 19.6343 28.5225 21.6709 28.5225C21.9686 28.5225 22.1514 28.5136 22.2 28.5107C22.5603 28.4905 22.9005 28.3378 23.1549 28.0818L25.896 24.8825C26.1457 24.5914 26.2722 24.2145 26.2485 23.8318C26.2249 23.449 26.0529 23.0906 25.7693 22.8326L19.7802 17.3858Z" fill="#F37421"/>
<path d="M25.053 13.7841H28.0004C28.0004 6.22414 22.2928 0.522461 14.7225 0.522461V3.46983C20.7086 3.46983 25.053 7.80688 25.053 13.7841Z" fill="#FBB428"/>
<path d="M19.1583 13.7856C19.1583 10.6865 17.8364 9.36457 14.7373 9.36457V6.4172C19.4899 6.4172 22.1057 9.03299 22.1057 13.7856H19.1583Z" fill="#FBB428"/>
</svg>
