<svg width="215" height="213" viewBox="0 0 215 213" fill="none" xmlns="http://www.w3.org/2000/svg">
<path d="M0.581336 0C0.385135 0 0.196201 0 0 0.00728504V118.753C0.196201 118.753 0.385135 118.753 0.581336 118.753C26.2255 118.753 50.3292 128.763 68.4596 146.939C86.125 164.649 96.0513 188.034 96.5527 213H215C213.932 95.1791 118.346 0 0.581336 0Z" fill="#1F4172"/>
<path d="M29.3866 148.455C34.902 150.283 39.9887 153.081 45.2062 155.579C48.1056 156.963 51.0341 158.187 54.0207 159.134C55.0162 159.448 56.019 159.732 57.0291 159.979C59.5579 160.599 62.1303 161.007 64.7754 161.116C65.3059 161.138 65.8363 161.152 66.3668 161.152C66.8973 161.152 67.435 161.138 67.9728 161.116C68.5105 161.094 69.0555 161.05 69.6005 160.999C76.5184 159.105 81.7577 155.71 85.609 151.106C89.4604 146.502 91.9311 140.689 93.3118 133.957C95.579 122.891 90.8411 115.912 79.8684 113.588C68.4524 111.162 58.5406 105.997 50.4091 97.4884C42.7573 89.4676 36.5443 80.3758 30.68 71.0291C27.0685 65.274 23.5078 59.4969 18.5374 54.7762C13.3489 49.8515 7.50651 46.4931 0 47.3528V164.613C2.15094 161.575 4.22196 158.471 6.46737 155.499C12.6731 147.304 19.5838 145.198 29.3866 148.455Z" fill="#F37421"/>
<path d="M70.5234 79.3268C66.8973 79.2685 64.0051 82.0223 63.947 85.5919C63.8889 89.096 66.7956 92.1412 70.2763 92.2213C73.6844 92.3015 76.8091 89.3 76.9035 85.8469C76.998 82.4011 74.0477 79.3851 70.5306 79.3268H70.5234Z" fill="#FBB428"/>
<path d="M202.792 108.336C202.945 108.35 203.09 108.343 203.228 108.336C203.635 108.292 203.962 108.146 204.231 107.913C204.58 107.6 204.819 107.141 204.965 106.58C204.79 105.589 204.282 104.788 203.395 104.599C203.272 104.569 203.133 104.555 202.988 104.555C201.833 104.555 201.077 105.451 201.106 106.595C201.128 107.52 201.753 108.256 202.792 108.329V108.336Z" fill="white"/>
<path d="M203.279 121.449C202.014 121.187 201.462 122.09 201.135 123.139C201.004 123.554 201.375 124.115 201.179 124.516C201.622 124.53 202.014 124.96 202.443 125.04C203.642 125.266 204.58 124.807 204.834 123.7C205.095 122.585 204.42 121.675 203.279 121.442V121.449Z" fill="white"/>
<path d="M135.321 104.591C134.383 104.824 133.606 105.32 133.707 106.369C133.831 107.615 134.754 108.074 135.924 108.001C136.927 107.935 137.66 107.425 137.501 106.332C137.333 105.16 136.534 104.569 135.321 104.591Z" fill="white"/>
<path d="M152.499 104.599C151.525 104.511 150.711 105.087 150.588 106.056C150.428 107.323 151.315 107.862 152.259 108.008C153.444 108.037 154.316 107.724 154.374 106.646C154.439 105.444 153.654 104.701 152.499 104.599Z" fill="white"/>
<path d="M168.994 104.62C168.043 104.773 167.294 105.371 167.425 106.405C167.577 107.629 168.508 108.088 169.678 107.993C170.695 107.913 171.305 107.389 171.225 106.063C170.833 105.254 170.237 104.424 168.994 104.62Z" fill="white"/>
<path d="M202.974 155.164C202.363 155.208 201.833 155.412 201.498 155.798C201.397 155.914 201.317 156.06 201.251 156.213C201.193 156.352 201.142 156.505 201.128 156.672C200.99 157.896 201.818 158.544 202.966 158.595C203.933 158.639 204.703 158.056 204.812 157.116C204.827 156.963 204.834 156.818 204.819 156.687C204.739 155.754 203.962 155.317 202.974 155.171V155.164Z" fill="white"/>
<path d="M185.737 155.237C184.8 155.426 184.109 156.075 184.269 157.058C184.458 158.202 185.316 158.77 186.493 158.544C187.452 158.362 187.975 157.728 188.004 156.73C187.641 155.608 186.914 155.004 185.73 155.237H185.737Z" fill="white"/>
<path d="M135.582 124.858C136.549 124.88 137.304 124.297 137.399 123.343C137.515 122.105 136.636 121.58 135.437 121.405C134.601 121.587 133.787 122.01 133.7 122.986C133.591 124.225 134.42 124.844 135.582 124.866V124.858Z" fill="white"/>
<path d="M169.024 155.215C168.072 155.324 167.359 155.936 167.418 156.92C167.49 158.115 168.326 158.69 169.503 158.566C170.47 158.464 171.029 157.852 171.153 156.854C170.898 155.71 170.208 155.084 169.016 155.222L169.024 155.215Z" fill="white"/>
<path d="M152.724 121.493C151.554 121.303 150.704 121.871 150.566 123.052C150.45 124.042 151.126 124.669 152.085 124.815C153.269 124.997 153.996 124.414 154.301 123.248C154.25 122.25 153.654 121.646 152.724 121.493Z" fill="white"/>
<path d="M169.06 124.836C170.23 124.924 171.066 124.356 171.102 123.139C171.138 122.134 170.382 121.646 169.242 121.391C168.377 121.558 167.41 121.915 167.41 123.175C167.41 124.152 168.086 124.764 169.06 124.836Z" fill="white"/>
<path d="M185.911 124.836C187.089 124.924 187.917 124.356 187.961 123.139C187.99 122.134 187.241 121.638 186.311 121.434C185.148 121.456 184.291 121.959 184.262 123.175C184.24 124.152 184.938 124.764 185.911 124.836Z" fill="white"/>
<path d="M185.911 107.993C187.089 108.081 187.917 107.513 187.961 106.296C187.99 105.291 187.241 104.795 186.311 104.591C185.148 104.613 184.291 105.116 184.262 106.332C184.24 107.309 184.938 107.921 185.911 107.993Z" fill="white"/>
<path d="M135.749 138.306C134.587 138.328 133.722 138.824 133.7 140.04C133.686 141.009 134.383 141.628 135.357 141.701C136.534 141.789 137.363 141.213 137.399 139.997C137.428 138.991 136.679 138.503 135.749 138.299V138.306Z" fill="white"/>
<path d="M152.557 141.73C153.516 141.585 154.25 141.075 154.258 140.084C154.258 138.867 153.415 138.27 152.267 138.328C151.322 138.372 150.581 138.962 150.566 139.953C150.552 141.184 151.402 141.687 152.557 141.73Z" fill="white"/>
<path d="M152.644 155.215C151.467 155.091 150.632 155.674 150.566 156.861C150.508 157.838 151.213 158.45 152.172 158.559C153.357 158.697 154.061 158.078 154.301 156.927C154.17 155.936 153.618 155.317 152.652 155.215H152.644Z" fill="white"/>
<path d="M168.893 141.672C170.077 141.898 170.804 141.301 171.16 140.164C171.131 139.166 170.571 138.547 169.634 138.365C168.457 138.139 167.607 138.722 167.425 139.865C167.272 140.849 167.948 141.49 168.893 141.672Z" fill="white"/>
<path d="M185.693 141.665C186.878 141.927 187.612 141.33 188.004 140.222C188.019 139.21 187.459 138.591 186.536 138.372C185.359 138.103 184.494 138.685 184.276 139.814C184.087 140.776 184.749 141.461 185.693 141.665Z" fill="white"/>
<path d="M202.647 138.357C201.724 138.51 200.99 139.122 201.113 140.128C201.266 141.301 202.102 141.862 203.286 141.687C204.253 141.541 204.79 140.922 204.863 139.916C204.543 138.773 203.817 138.161 202.647 138.357Z" fill="white"/>
<path d="M135.51 155.164C135.146 155.201 134.819 155.295 134.536 155.448C134.165 155.652 133.889 155.958 133.766 156.381C133.736 156.483 133.715 156.599 133.707 156.716C133.606 157.94 134.449 158.566 135.597 158.581C136.563 158.595 137.312 158.013 137.399 157.058C137.413 156.905 137.413 156.759 137.399 156.628C137.29 155.696 136.512 155.273 135.517 155.164H135.51Z" fill="white"/>
</svg>
