<svg width="16" height="21" viewBox="0 0 16 21" fill="none" xmlns="http://www.w3.org/2000/svg">
<path d="M6.91676 0.957907C7.06203 0.81884 7.23334 0.709828 7.42084 0.637127C7.79274 0.484347 8.20987 0.484347 8.58176 0.637127C8.76927 0.709828 8.94057 0.81884 9.08584 0.957907L15.5508 7.42283C15.8384 7.71047 16 8.10059 16 8.50737C16 8.91415 15.8384 9.30427 15.5508 9.59191C15.2631 9.87955 14.873 10.0411 14.4662 10.0411C14.0594 10.0411 13.6693 9.87955 13.3817 9.59191L9.52883 5.72378L9.52883 18.8939C9.52883 19.299 9.36789 19.6875 9.08142 19.974C8.79496 20.2605 8.40643 20.4214 8.0013 20.4214C7.59618 20.4214 7.20765 20.2605 6.92118 19.974C6.63471 19.6875 6.47378 19.299 6.47378 18.8939L6.47378 5.72378L2.62092 9.59191C2.47892 9.73509 2.30997 9.84872 2.12383 9.92627C1.93769 10.0038 1.73803 10.0438 1.53638 10.0438C1.33473 10.0438 1.13507 10.0038 0.948929 9.92627C0.762786 9.84872 0.593842 9.73509 0.451839 9.59191C0.308667 9.44991 0.195026 9.28096 0.117476 9.09482C0.039926 8.90868 -5.11964e-07 8.70902 -5.20778e-07 8.50737C-5.29593e-07 8.30572 0.039926 8.10606 0.117476 7.91992C0.195026 7.73378 0.308667 7.56483 0.451839 7.42283L6.91676 0.957907Z" fill="#FBB428"/>
</svg>
