<svg width="198" height="183" viewBox="0 0 198 183" fill="none" xmlns="http://www.w3.org/2000/svg">
<path d="M0.499019 0C0.3306 0 0.168419 0 0 0.00625898V102.028C0.168419 102.028 0.3306 102.028 0.499019 102.028C22.512 102.028 43.2025 110.627 58.7657 126.244C73.9296 141.459 82.4504 161.55 82.8808 183H184.556C183.639 81.7736 101.588 0 0.499019 0Z" fill="white"/>
<path d="M25.2254 127.545C29.9598 129.116 34.3262 131.52 38.8049 133.667C41.2938 134.856 43.8076 135.907 46.3713 136.721C47.2259 136.99 48.0867 137.234 48.9537 137.447C51.1245 137.979 53.3326 138.33 55.6032 138.424C56.0585 138.442 56.5139 138.455 56.9692 138.455C57.4246 138.455 57.8862 138.442 58.3478 138.424C58.8094 138.405 59.2772 138.367 59.745 138.323C65.6833 136.696 70.1807 133.779 73.4867 129.824C76.7927 125.868 78.9136 120.873 80.0987 115.09C82.0449 105.583 77.9779 99.5866 68.5589 97.59C58.7595 95.5058 50.2512 91.0681 43.2712 83.7576C36.7028 76.8665 31.3696 69.0553 26.3357 61.025C23.2356 56.0804 20.1791 51.1171 15.9125 47.0613C11.4587 42.8302 6.44358 39.9448 0 40.6834V141.428C1.84637 138.818 3.62412 136.152 5.55158 133.598C10.8786 126.557 16.8107 124.748 25.2254 127.545Z" fill="#F37421"/>
<path d="M60.5372 68.154C57.4246 68.1039 54.942 70.4698 54.8921 73.5367C54.8422 76.5473 57.3372 79.1636 60.3251 79.2324C63.2506 79.3012 65.9328 76.7225 66.0139 73.7558C66.095 70.7953 63.5625 68.2041 60.5434 68.154H60.5372Z" fill="#FBB428"/>
<path d="M196.135 93.0773C196.266 93.0898 196.391 93.0835 196.509 93.0773C196.859 93.0397 197.139 92.9145 197.37 92.7142C197.669 92.4451 197.875 92.0508 198 91.5689C197.85 90.7176 197.414 90.0291 196.653 89.8664C196.547 89.8414 196.428 89.8289 196.303 89.8289C195.312 89.8289 194.663 90.5987 194.688 91.5814C194.706 92.3763 195.243 93.0084 196.135 93.071V93.0773Z" fill="#FBB428"/>
<path d="M196.553 104.343C195.467 104.118 194.993 104.894 194.713 105.796C194.6 106.152 194.919 106.634 194.75 106.978C195.131 106.991 195.467 107.36 195.835 107.429C196.865 107.623 197.669 107.229 197.888 106.277C198.112 105.32 197.532 104.537 196.553 104.337V104.343Z" fill="#FBB428"/>
<path d="M138.218 89.8602C137.413 90.0604 136.745 90.486 136.833 91.3873C136.939 92.4576 137.731 92.8519 138.735 92.7894C139.596 92.733 140.226 92.2949 140.089 91.356C139.945 90.3484 139.259 89.8414 138.218 89.8602Z" fill="#FBB428"/>
<path d="M152.964 89.8664C152.128 89.7913 151.429 90.2858 151.323 91.1182C151.186 92.2073 151.947 92.6704 152.758 92.7956C153.774 92.8206 154.523 92.5515 154.573 91.6252C154.629 90.5924 153.955 89.954 152.964 89.8664Z" fill="#FBB428"/>
<path d="M167.123 89.8852C166.306 90.0166 165.664 90.5299 165.776 91.4186C165.907 92.4701 166.705 92.8645 167.71 92.7831C168.583 92.7142 169.107 92.2636 169.038 91.1245C168.701 90.4297 168.19 89.7162 167.123 89.8852Z" fill="#FBB428"/>
<path d="M196.291 133.31C195.767 133.348 195.312 133.523 195.025 133.855C194.937 133.955 194.869 134.08 194.813 134.211C194.763 134.33 194.719 134.462 194.706 134.606C194.588 135.657 195.299 136.214 196.285 136.258C197.114 136.296 197.775 135.795 197.869 134.987C197.881 134.856 197.888 134.731 197.875 134.618C197.807 133.817 197.139 133.441 196.291 133.316V133.31Z" fill="#FBB428"/>
<path d="M181.495 133.373C180.69 133.535 180.098 134.092 180.235 134.937C180.397 135.92 181.133 136.408 182.144 136.214C182.967 136.058 183.416 135.513 183.441 134.656C183.129 133.692 182.505 133.172 181.489 133.373H181.495Z" fill="#FBB428"/>
<path d="M138.442 107.273C139.272 107.291 139.92 106.791 140.002 105.971C140.101 104.907 139.347 104.456 138.317 104.306C137.6 104.462 136.901 104.825 136.827 105.664C136.733 106.728 137.444 107.26 138.442 107.279V107.273Z" fill="#FBB428"/>
<path d="M167.148 133.354C166.331 133.448 165.72 133.973 165.77 134.818C165.832 135.845 166.549 136.339 167.56 136.233C168.389 136.145 168.87 135.62 168.976 134.762C168.757 133.779 168.165 133.241 167.142 133.36L167.148 133.354Z" fill="#FBB428"/>
<path d="M153.157 104.381C152.153 104.218 151.423 104.706 151.304 105.72C151.205 106.572 151.785 107.11 152.608 107.235C153.625 107.392 154.249 106.891 154.51 105.889C154.467 105.032 153.955 104.512 153.157 104.381Z" fill="#FBB428"/>
<path d="M167.179 107.254C168.184 107.329 168.901 106.841 168.932 105.796C168.963 104.932 168.315 104.512 167.335 104.293C166.593 104.437 165.763 104.744 165.763 105.827C165.763 106.666 166.343 107.191 167.179 107.254Z" fill="#FBB428"/>
<path d="M181.645 107.254C182.655 107.329 183.366 106.841 183.404 105.796C183.429 104.932 182.786 104.506 181.988 104.331C180.99 104.35 180.254 104.782 180.229 105.827C180.21 106.666 180.809 107.191 181.645 107.254Z" fill="#FBB428"/>
<path d="M181.645 92.7831C182.655 92.8582 183.366 92.37 183.404 91.3248C183.429 90.461 182.786 90.0354 181.988 89.8602C180.99 89.8789 180.254 90.3108 180.229 91.356C180.21 92.1947 180.809 92.7205 181.645 92.7831Z" fill="#FBB428"/>
<path d="M138.586 118.827C137.588 118.845 136.845 119.271 136.827 120.316C136.814 121.149 137.413 121.681 138.249 121.743C139.259 121.818 139.97 121.324 140.002 120.279C140.026 119.415 139.384 118.996 138.586 118.82V118.827Z" fill="#FBB428"/>
<path d="M153.013 121.768C153.837 121.643 154.467 121.205 154.473 120.354C154.473 119.309 153.749 118.795 152.764 118.845C151.953 118.883 151.317 119.39 151.304 120.241C151.292 121.299 152.022 121.731 153.013 121.768Z" fill="#FBB428"/>
<path d="M153.088 133.354C152.078 133.247 151.36 133.748 151.304 134.768C151.254 135.607 151.859 136.133 152.683 136.227C153.7 136.346 154.305 135.814 154.51 134.825C154.398 133.973 153.924 133.441 153.095 133.354H153.088Z" fill="#FBB428"/>
<path d="M167.036 121.718C168.053 121.912 168.676 121.399 168.982 120.423C168.957 119.565 168.477 119.033 167.672 118.877C166.662 118.683 165.932 119.183 165.776 120.166C165.645 121.011 166.225 121.562 167.036 121.718Z" fill="#FBB428"/>
<path d="M181.458 121.712C182.474 121.937 183.104 121.424 183.441 120.473C183.454 119.603 182.973 119.071 182.181 118.883C181.171 118.651 180.428 119.152 180.241 120.122C180.079 120.948 180.647 121.537 181.458 121.712Z" fill="#FBB428"/>
<path d="M196.01 118.871C195.218 119.002 194.588 119.528 194.694 120.391C194.825 121.399 195.542 121.881 196.559 121.731C197.389 121.606 197.85 121.074 197.913 120.21C197.638 119.227 197.014 118.702 196.01 118.871Z" fill="#FBB428"/>
<path d="M138.38 133.31C138.068 133.341 137.787 133.423 137.544 133.554C137.226 133.729 136.989 133.992 136.883 134.355C136.858 134.443 136.839 134.543 136.833 134.643C136.745 135.695 137.469 136.233 138.455 136.245C139.284 136.258 139.927 135.757 140.002 134.937C140.014 134.806 140.014 134.681 140.002 134.568C139.908 133.767 139.241 133.404 138.386 133.31H138.38Z" fill="#FBB428"/>
</svg>
