<svg width="31" height="31" viewBox="0 0 31 31" fill="none" xmlns="http://www.w3.org/2000/svg">
<path d="M15.514 11.0225C14.3205 11.0225 13.1759 11.4966 12.332 12.3405C11.4881 13.1844 11.014 14.329 11.014 15.5225C11.014 16.7159 11.4881 17.8605 12.332 18.7044C13.1759 19.5484 14.3205 20.0225 15.514 20.0225C16.7075 20.0225 17.8521 19.5484 18.696 18.7044C19.5399 17.8605 20.014 16.7159 20.014 15.5225C20.014 14.329 19.5399 13.1844 18.696 12.3405C17.8521 11.4966 16.7075 11.0225 15.514 11.0225ZM15.514 8.02246C17.5031 8.02246 19.4108 8.81264 20.8173 10.2192C22.2238 11.6257 23.014 13.5333 23.014 15.5225C23.014 17.5116 22.2238 19.4192 20.8173 20.8258C19.4108 22.2323 17.5031 23.0225 15.514 23.0225C13.5249 23.0225 11.6172 22.2323 10.2107 20.8258C8.80418 19.4192 8.014 17.5116 8.014 15.5225C8.014 13.5333 8.80418 11.6257 10.2107 10.2192C11.6172 8.81264 13.5249 8.02246 15.514 8.02246ZM25.264 7.64746C25.264 8.14474 25.0665 8.62166 24.7148 8.97329C24.3632 9.32492 23.8863 9.52246 23.389 9.52246C22.8917 9.52246 22.4148 9.32492 22.0632 8.97329C21.7115 8.62166 21.514 8.14474 21.514 7.64746C21.514 7.15018 21.7115 6.67327 22.0632 6.32164C22.4148 5.97001 22.8917 5.77246 23.389 5.77246C23.8863 5.77246 24.3632 5.97001 24.7148 6.32164C25.0665 6.67327 25.264 7.15018 25.264 7.64746ZM15.514 3.52246C11.803 3.52246 11.197 3.53296 9.4705 3.60946C8.2945 3.66496 7.5055 3.82246 6.7735 4.10746C6.1225 4.35946 5.653 4.66096 5.1535 5.16196C4.68401 5.61556 4.32303 6.16934 4.0975 6.78196C3.8125 7.51696 3.655 8.30446 3.601 9.47896C3.523 11.135 3.514 11.714 3.514 15.5225C3.514 19.2335 3.5245 19.8395 3.601 21.566C3.6565 22.7405 3.814 23.531 4.0975 24.2615C4.3525 24.914 4.6525 25.3835 5.1505 25.8815C5.656 26.3855 6.1255 26.687 6.7705 26.936C7.5115 27.2225 8.3005 27.3815 9.4705 27.4355C11.1265 27.5135 11.7055 27.5225 15.514 27.5225C19.225 27.5225 19.831 27.512 21.5575 27.4355C22.7305 27.38 23.521 27.2225 24.253 26.939C24.9025 26.6855 25.375 26.384 25.873 25.886C26.3785 25.3805 26.68 24.911 26.929 24.266C27.214 23.5265 27.373 22.736 27.427 21.566C27.505 19.91 27.514 19.331 27.514 15.5225C27.514 11.8115 27.5035 11.2055 27.427 9.47896C27.3715 8.30596 27.214 7.51396 26.929 6.78196C26.7029 6.16996 26.3426 5.6164 25.8745 5.16196C25.4211 4.69223 24.8673 4.33121 24.2545 4.10596C23.5195 3.82096 22.7305 3.66346 21.5575 3.60946C19.9015 3.53146 19.3225 3.52246 15.514 3.52246ZM15.514 0.522461C19.5895 0.522461 20.098 0.537461 21.697 0.612461C23.2945 0.687461 24.382 0.937961 25.339 1.30996C26.329 1.69096 27.163 2.20696 27.997 3.03946C28.7597 3.7893 29.3499 4.69634 29.7265 5.69746C30.097 6.65296 30.349 7.74196 30.424 9.33946C30.4945 10.9385 30.514 11.447 30.514 15.5225C30.514 19.598 30.499 20.1065 30.424 21.7055C30.349 23.303 30.097 24.3905 29.7265 25.3475C29.351 26.3491 28.7607 27.2564 27.997 28.0055C27.2469 28.7679 26.34 29.3581 25.339 29.735C24.3835 30.1055 23.2945 30.3575 21.697 30.4325C20.098 30.503 19.5895 30.5225 15.514 30.5225C11.4385 30.5225 10.93 30.5075 9.331 30.4325C7.7335 30.3575 6.646 30.1055 5.689 29.735C4.68749 29.3592 3.78029 28.7689 3.031 28.0055C2.26811 27.2557 1.6779 26.3487 1.3015 25.3475C0.9295 24.392 0.679 23.303 0.604 21.7055C0.5335 20.1065 0.514 19.598 0.514 15.5225C0.514 11.447 0.529 10.9385 0.604 9.33946C0.679 7.74046 0.9295 6.65446 1.3015 5.69746C1.67685 4.69573 2.26721 3.78844 3.031 3.03946C3.78051 2.27631 4.68764 1.68605 5.689 1.30996C6.646 0.937961 7.732 0.687461 9.331 0.612461C10.93 0.541961 11.4385 0.522461 15.514 0.522461Z" fill="white"/>
</svg>
